<svg xmlns="http://www.w3.org/2000/svg" viewBox="0 0 426.67 338.24"><defs><style>.cls-1{fill:#ca2e31;}.cls-2{fill:#423131;}.cls-3,.cls-4,.cls-62,.cls-7{fill:#2d0101;}.cls-10,.cls-17,.cls-3,.cls-38,.cls-52{opacity:0.22;}.cls-4,.cls-44,.cls-47{opacity:0.28;}.cls-5{fill:#f1edea;}.cls-6{fill:#5b4443;}.cls-51,.cls-7{opacity:0.26;}.cls-8{fill:#fafcfb;}.cls-10,.cls-16,.cls-9{fill:#2d252b;}.cls-9{opacity:0.1;}.cls-11,.cls-42,.cls-48,.cls-49,.cls-56,.cls-58,.cls-65,.cls-71{fill:none;}.cls-11,.cls-42,.cls-65{stroke:#421b09;}.cls-11,.cls-42,.cls-48,.cls-49,.cls-58,.cls-65,.cls-71{stroke-linecap:round;stroke-linejoin:round;}.cls-11{stroke-width:0.73px;}.cls-12{fill:#ff978c;}.cls-13{fill:#666;}.cls-14{fill:#939393;}.cls-15{fill:#ded4d2;}.cls-17{fill:#282020;}.cls-18,.cls-32,.cls-55,.cls-70{fill:#fff;}.cls-19{fill:#ffe8bf;}.cls-20{fill:#add54c;}.cls-21,.cls-74{fill:#1b3a00;}.cls-21,.cls-53{opacity:0.17;}.cls-22{fill:#396;}.cls-23,.cls-52{fill:#00073d;}.cls-23{opacity:0.33;}.cls-24{fill:#053535;}.cls-25{fill:#5b0505;}.cls-26{fill:#ff4a7a;}.cls-27{fill:#ff4848;}.cls-28{fill:#331301;}.cls-29{opacity:0.47;}.cls-30,.cls-36,.cls-43{fill:#f9e49d;}.cls-31,.cls-44,.cls-45,.cls-54,.cls-69{fill:#7c0808;}.cls-31{opacity:0.36;}.cls-32{opacity:0.32;}.cls-33{fill:#d69d0d;}.cls-34{fill:#efbb48;}.cls-35{fill:#e4dbd2;}.cls-35,.cls-36{opacity:0.35;}.cls-37{fill:#ce9811;}.cls-38{fill:#680000;}.cls-39{fill:#e0ac19;}.cls-40{opacity:0.75;}.cls-41{fill:#e5cf2e;}.cls-42{stroke-width:1.19px;}.cls-43,.cls-54{opacity:0.5;}.cls-46{fill:#631e49;}.cls-48,.cls-49,.cls-58{stroke:#230222;}.cls-48{stroke-width:0.9px;}.cls-49{stroke-width:1.01px;}.cls-50{fill:#35002a;}.cls-51{fill:#fc97dd;}.cls-55{opacity:0.45;}.cls-56{stroke:#000;stroke-miterlimit:10;stroke-width:0.33px;}.cls-57{fill:#e6f4a8;}.cls-58{stroke-width:1.18px;}.cls-59{opacity:0.63;}.cls-60{fill:#f3d1b5;}.cls-61{fill:#b72148;opacity:0.41;}.cls-62{opacity:0.18;}.cls-63{fill:#fff4c5;}.cls-64{fill:#6d4b4a;}.cls-65{stroke-width:0.61px;}.cls-66{fill:#efefef;}.cls-67{fill:#3f0101;}.cls-68{fill:#f96e6e;}.cls-69{opacity:0.2;}.cls-70{opacity:0.16;}.cls-71{stroke:#381405;stroke-width:1.22px;}.cls-72{fill:#fc5959;}.cls-73{fill:#ff8383;}.cls-74{opacity:0.25;}</style></defs><title>Resurs 2</title><g id="Lager_2" data-name="Lager 2"><g id="BACKGROUND_2" data-name="BACKGROUND 2"><path class="cls-1" d="M151.76,255.72l-14.62,10.07S116,257,92.14,248.66,51,230.48,53.37,221.81c1.05-3.87,4.52-6.54,11-6.63,4-.06,9.25.89,15.79,3.18h0a147.62,147.62,0,0,1,23.39,11c11.1,6.3,20.15,11.33,27.29,15.22C145.14,252.44,151.76,255.72,151.76,255.72Z"/><path class="cls-2" d="M61.33,222.2c1.51-4.67,11.64-3.19,11.94,2.31S59.65,227.37,61.33,222.2Z"/><path class="cls-3" d="M151.76,255.72l-14.62,10.07S116,257,92.14,248.66,51,230.48,53.37,221.81c1.05-3.87,4.52-6.54,11-6.63a6.78,6.78,0,0,0-5.31,4.23c-3.71,9.41,40.42,20.3,54.86,26.66s31.5,9.85,16.93-1.43C145.14,252.44,151.76,255.72,151.76,255.72Z"/><path class="cls-1" d="M339.86,288.58a72,72,0,0,1-19.65,18c-28.37,17.78-72.28,25.3-72.28,25.3s-43.38,10.14-76.42,4.81-51-30.11-54.11-45.59c0,0,12.87,12.07,37.16,17.14a105,105,0,0,0,16.37,2.07C205.76,312,242,302.74,242,302.74s37-5.58,68.45-20.69,41.83-38.51,41.83-38.51C354.53,254.49,351.73,272.61,339.86,288.58Z"/><path class="cls-4" d="M339.86,288.58a72,72,0,0,1-19.65,18c-28.37,17.78-72.28,25.3-72.28,25.3s-43.38,10.14-76.42,4.81-51-30.11-54.11-45.59c0,0,12.87,12.07,37.16,17.14,6.5,7.58,24.94,20.22,74.19,14.74A315.93,315.93,0,0,0,339.86,288.58Z"/><path class="cls-5" d="M313.9,282.34h0c-19,9.22-43.74,17.43-71.32,23C177.7,318.5,121.65,312.11,117.4,291.1,113.94,274,145.78,252.53,192.67,238l.06,0a.06.06,0,0,1,.05,0c10.75-3.33,22.29-6.27,34.37-8.73,64.87-13.13,120.9-6.75,125.15,14.27C354.75,255.61,339.57,269.89,313.9,282.34Z"/><path class="cls-6" d="M340.87,244c1.14,5.6-3,11.89-11.17,18.24-16.57,12.9-49.74,26-89.17,34-40.81,8.26-77.6,8.82-97.47,2.75-8.78-2.68-14.26-6.67-15.31-11.86-3.43-16.95,41.5-40.35,100.35-52.27S337.44,227,340.87,244Z"/><path class="cls-2" d="M329.7,262.19c-16.57,12.9-49.74,26-89.17,34-40.81,8.26-77.6,8.82-97.47,2.75,3.89-16.14,40.64-35.34,87.75-44.87C279,244.34,321.06,248.1,329.7,262.19Z"/><path class="cls-7" d="M313.88,282.35c-19,9.22-43.74,17.43-71.32,23C177.7,318.5,121.65,312.11,117.4,291.1,113.94,274,145.78,252.53,192.67,238c-3.25,1.09-74.12,25.22-70.22,52.85C126.44,319.17,242,308.44,313.88,282.35Z"/><path class="cls-8" d="M323.85,177.79c2.29-1.43,5.62.5,9.1.09s43.05-16.67,45.84-18.69,3.71-17,3.22-19.26-9.84-13.62-12.94-16.79-16.08-3.8-17.49-3.73S317.86,150,316.51,151.62s-1,6.68-2.64,7.21,1.11,7.6,3.52,11.82A25.47,25.47,0,0,0,323.85,177.79Z"/><path class="cls-9" d="M383.14,139.37,382,140l-15.82,8.36-.08,0-2.36,1.25-5.94,3.15-.06,0-27.28,14.42-6.32-9.65,22.76-18.84,6-5,3-2.53,2.18-1.8,9.06-7.5,1.06-.87Z"/><path class="cls-10" d="M383.14,139.37l-2.66,20.55-47.94,19.5-.25-1.49-1.53-9-.29-1.67,27.28-14.42.06,0,5.94-3.15,2.36-1.25.08,0L382,140Z"/><polygon class="cls-10" points="368.26 121.06 367.2 121.93 358.14 129.43 355.96 131.23 352.92 133.76 346.91 138.73 324.15 157.57 315.95 152.69 315.07 152.16 339.4 128.93 351.21 117.66 368.26 121.06"/><path class="cls-9" d="M332.29,177.93a49.93,49.93,0,0,0-8,1l-.08,0a3.84,3.84,0,0,1-1.41,0,7.35,7.35,0,0,1-2.59-.87,7.12,7.12,0,0,1-1.48-1.12,6.51,6.51,0,0,1-.63-.76,4.09,4.09,0,0,1-.5-1h0a3.67,3.67,0,0,1,.53-3.16l.08-.13a5.13,5.13,0,0,1,1.67-1.41,14.76,14.76,0,0,1,1.78-.87,48,48,0,0,1,8.85-2.4l.29,1.67Z"/><path class="cls-9" d="M315.24,166.29a23.7,23.7,0,0,0,8.91-8.71L316,152.69s-1.69,4.75-4,6.18S313.16,166,315.24,166.29Z"/><path class="cls-11" d="M360.61,159s-2.17,1.12-3.65-2,.85-4.3.85-4.3"/><path class="cls-11" d="M350.06,139.13s-1.94,1.48-3.93-1.29.09-4.39.09-4.39"/><path class="cls-11" d="M359.07,148.26s-.39-3.95,3.13-5,6.3,2,6.3,2"/><path class="cls-11" d="M353,139.1s3.3,2.4,5.81-.19,1.54-4.59,1.54-4.59"/><line class="cls-11" x1="361.55" y1="143.51" x2="358.32" y2="139.38"/><path class="cls-12" d="M364.84,148.48c1.67-.74,4.07,1.07,5.37,4s1,5.95-.66,6.68-4.06-1.07-5.36-4S363.18,149.21,364.84,148.48Z"/><ellipse class="cls-12" cx="352.18" cy="128.39" rx="3.29" ry="5.85" transform="translate(-21.89 152.68) rotate(-23.74)"/><path class="cls-13" d="M324.34,177.54a4.37,4.37,0,0,1-.17,1.39,2.73,2.73,0,0,1-1.9,2,3.15,3.15,0,0,1-.95.16l-1-1.48c-.45-.69-1-1.58-1.67-2.61l-.55-.86c-.18-.31-.37-.62-.58-.93h0c-2.85-4.59-6.46-10.7-7.56-13.88a3.3,3.3,0,0,1-.28-1.84c0-.05,0-.09.07-.13a2.44,2.44,0,0,1,2.9-1,3.78,3.78,0,0,1,1.08.57,19.33,19.33,0,0,1,4.63,5.3c.85,1.29,1.78,2.83,2.8,4.65.15.27.29.53.42.79a31.85,31.85,0,0,1,1.68,3.56A12.69,12.69,0,0,1,324.34,177.54Z"/><path class="cls-14" d="M322.76,179a3.81,3.81,0,0,1-.49,1.94,2.84,2.84,0,0,1-2.22,1.38,1.52,1.52,0,0,1-.32,0s-1.28-1.95-3-4.67c-3.74-5.93-9.52-15.6-8.56-17l0,0a2.94,2.94,0,0,1,1.51-1.12,2.42,2.42,0,0,1,1.65.19,7.34,7.34,0,0,1,2.19,1.62,27.3,27.3,0,0,1,3.2,4.09c.87,1.3,1.82,2.86,2.86,4.71l.22.41a33.59,33.59,0,0,1,1.5,3,20.1,20.1,0,0,1,1.11,3.14A9,9,0,0,1,322.76,179Z"/><path class="cls-15" d="M320.05,182.3c-.81,2.46-3.2,3.61-6.94,3.38-3.09-.18-6.23-2.1-8.57-4.91-3.37-4-5.11-9.86-2.76-15.07,1.77-3.95,4-5.53,6.41-5.08a5.79,5.79,0,0,1,1.81.69,9.11,9.11,0,0,1,1.8,1.34h0a20.18,20.18,0,0,1,2.93,3.48c.52.75,1.05,1.59,1.57,2.48,0,0,0,0,0,.07.4.68.79,1.41,1.18,2.18,0,.06.06.13.1.19l.48,1c.42.91.79,1.78,1.09,2.6a19.44,19.44,0,0,1,1,3.48,11.92,11.92,0,0,1,.19,1.49A7.12,7.12,0,0,1,320.05,182.3Z"/><path class="cls-16" d="M304.22,175.65a.48.48,0,0,1,.44.5.47.47,0,1,1-.94-.06A.48.48,0,0,1,304.22,175.65Z"/><path class="cls-16" d="M305,170.84a.47.47,0,0,1,.44.5.46.46,0,0,1-.49.44.47.47,0,0,1-.44-.5A.46.46,0,0,1,305,170.84Z"/><path class="cls-16" d="M303.3,166.5a.46.46,0,0,1,.44.5.48.48,0,0,1-.5.44.48.48,0,0,1-.44-.5A.47.47,0,0,1,303.3,166.5Z"/><path class="cls-16" d="M302,170.66a.47.47,0,0,1,.44.5.46.46,0,0,1-.49.44.49.49,0,0,1-.45-.5A.48.48,0,0,1,302,170.66Z"/><path class="cls-16" d="M313.18,182.94a.47.47,0,0,1,.44.5.46.46,0,0,1-.49.44.46.46,0,0,1-.44-.49A.48.48,0,0,1,313.18,182.94Z"/><path class="cls-16" d="M310.21,180.8a.47.47,0,1,1-.06.93.46.46,0,0,1-.44-.49A.46.46,0,0,1,310.21,180.8Z"/><path class="cls-16" d="M307.18,175.83a.48.48,0,0,1,.44.5.47.47,0,0,1-.5.44.47.47,0,1,1,.06-.94Z"/><path class="cls-16" d="M306.39,179.7a.47.47,0,1,1-.05.93.47.47,0,0,1,.05-.93Z"/><path class="cls-17" d="M383.14,139.37l-2.66,20.55-47.94,19.5-.25-1.49a49.93,49.93,0,0,0-8,1l-.08,0a2.73,2.73,0,0,1-1.9,2,2.84,2.84,0,0,1-2.22,1.38c-.81,2.46-3.2,3.61-6.94,3.38-3.09-.18-6.23-2.1-8.57-4.91a3.56,3.56,0,0,1,1.8-.13h0a12,12,0,0,0,10.39-3,13.92,13.92,0,0,0,1.31-1.42.24.24,0,0,0,.08-.1,13.09,13.09,0,0,0,1-1.5,8.06,8.06,0,0,0,.44-.84l1.72-.28,2-.33.37-.06s1.87-3,7.09-4.23a20.56,20.56,0,0,1,5.66-.47c4.68.21,14-4.21,21.27-10.21a40.84,40.84,0,0,0,5.74-5.72,23.32,23.32,0,0,0,2.74-4.11l0,0a13.37,13.37,0,0,0,1.32-3.89,8.57,8.57,0,0,0-1.7-6.83,45.85,45.85,0,0,0-7.67-8.18,17.72,17.72,0,0,0-2.74-1.81,11.62,11.62,0,0,0-7-1.45,20.19,20.19,0,0,0-8.81,3.65l-.14-.89,11.81-11.27,17.05,3.4Z"/><path class="cls-18" d="M420.45,136a54.54,54.54,0,0,0-5.9,5.19h0l-.75.73,0,0c-8.75,8.45-22.56,22.72-23.14,22.84-.78.16-2.46-3.12-4.13-2s0,4.36,1.6,6.1-31.45,33.7-59.18,53.13a9.31,9.31,0,0,1-8.06,1.28c-1.8-.54-4-1.15-6.26-1.65a11.31,11.31,0,0,0-6.78.54,86.08,86.08,0,0,0-30.31,21.43,8.25,8.25,0,0,0-1.35,9.08c2.75,5.74,8.08,15.22,15.7,21.51a8.29,8.29,0,0,0,9.47.82c7.52-4.41,22.46-13.9,30.14-24a11.18,11.18,0,0,0,2-8.78c-.43-2.29-.94-5.14-1.38-7.71a9.36,9.36,0,0,1,3.35-8.89c11.19-9,41.59-34.07,55.86-51.47,0,0,2.46,3.12,4.13,2s-.85-3.69.57-4.8,25.62-21.4,29.35-26.86S424,133.87,420.45,136ZM325.61,243a1.05,1.05,0,0,1,1.59,1.33c-7,12-21.21,22.06-25.84,25.14a3.19,3.19,0,0,1-3.61,0l-.08-.06a3.24,3.24,0,0,1,.36-5.32C306.8,258.82,319.35,248.39,325.61,243Zm-4.2-8.84c1.58,3.24-19.69,21.66-26.24,27.22a3.67,3.67,0,0,1-5.81-1.36l0-.09a3.62,3.62,0,0,1,1.11-3.92C296.16,251.06,319.78,230.85,321.41,234.19Zm-38.8,12.44c4.06-3.79,17.17-15.31,30.43-19.32a1.05,1.05,0,0,1,.93,1.85c-6.66,4.86-19.71,14.66-26.91,22a3.25,3.25,0,0,1-5.26-.89l0-.09A3.16,3.16,0,0,1,282.61,246.63Z"/><path class="cls-7" d="M425.37,144.44c-3.73,5.46-27.93,25.73-29.35,26.86s1.1,3.72-.57,4.8-4.13-2-4.13-2c-14.27,17.4-44.67,42.45-55.86,51.47a9.36,9.36,0,0,0-3.35,8.89c.44,2.57.95,5.42,1.38,7.71a11.18,11.18,0,0,1-2,8.78c-7.68,10.14-22.62,19.63-30.14,24a8.29,8.29,0,0,1-9.47-.82c-7.62-6.29-13-15.77-15.7-21.51a8.17,8.17,0,0,1-.61-5.27,1.13,1.13,0,0,1,.2.7c.59,7.57,12.95,23.18,19.9,25.25s24.82-11.43,31.71-23.29-.66-12.32,0-18.62,5.7-8.31,24.64-23.86,70.06-62,68.15-66.31c-1.41-3.17-4.21-1.29-5.59-.09a54.54,54.54,0,0,1,5.9-5.19C424,133.87,429.09,139,425.37,144.44Z"/><path class="cls-19" d="M132.85,229.57a2.56,2.56,0,1,1-2.56-2.56A2.56,2.56,0,0,1,132.85,229.57Z"/><path class="cls-19" d="M309.71,38.36a2.56,2.56,0,1,1-2.56-2.56A2.56,2.56,0,0,1,309.71,38.36Z"/><path class="cls-19" d="M86.84,64.29a1.66,1.66,0,1,1-1.65-1.65A1.65,1.65,0,0,1,86.84,64.29Z"/><path class="cls-19" d="M168.38,232.19a1.66,1.66,0,1,1-1.65-1.65A1.65,1.65,0,0,1,168.38,232.19Z"/><circle class="cls-19" cx="343.84" cy="190.67" r="1.65"/><path class="cls-19" d="M109.5,200.27a1.66,1.66,0,1,1-1.65-1.65A1.65,1.65,0,0,1,109.5,200.27Z"/><path class="cls-19" d="M245.61,108.43a.93.93,0,1,1-.93-.93A.93.93,0,0,1,245.61,108.43Z"/><path class="cls-19" d="M117.05,83.44a.93.93,0,1,1-1.86,0,.93.93,0,1,1,1.86,0Z"/><path class="cls-19" d="M203.63,185.71a.93.93,0,1,1-.93-.93A.93.93,0,0,1,203.63,185.71Z"/><path class="cls-19" d="M292.7,179.73a.5.5,0,0,1-.5.5.5.5,0,0,1-.5-.5.51.51,0,0,1,.5-.5A.5.5,0,0,1,292.7,179.73Z"/><path class="cls-19" d="M304.73,193.19a.5.5,0,0,1-.5.5.51.51,0,0,1-.5-.5.5.5,0,0,1,.5-.5A.5.5,0,0,1,304.73,193.19Z"/><path class="cls-19" d="M301.2,184.78a.5.5,0,1,1-.5-.5A.5.5,0,0,1,301.2,184.78Z"/><path class="cls-19" d="M307.65,186.85a.5.5,0,1,1-1,0,.5.5,0,0,1,1,0Z"/><path class="cls-19" d="M298,177.94a.5.5,0,0,1-1,0,.5.5,0,0,1,1,0Z"/><path class="cls-19" d="M294.77,195.6a.5.5,0,1,1-1,0,.5.5,0,0,1,1,0Z"/><path class="cls-19" d="M298.47,173.12a.5.5,0,0,1-1,0,.5.5,0,0,1,1,0Z"/><path class="cls-19" d="M302,207.85a.5.5,0,0,1-.5.5.5.5,0,0,1-.5-.5.51.51,0,0,1,.5-.5A.5.5,0,0,1,302,207.85Z"/><path class="cls-19" d="M279.69,205.78a.5.5,0,0,1-.5.5.5.5,0,0,1-.5-.5.51.51,0,0,1,.5-.5A.5.5,0,0,1,279.69,205.78Z"/><path class="cls-19" d="M286.82,200.27a.5.5,0,0,1-.5.5.5.5,0,0,1-.5-.5.51.51,0,0,1,.5-.5A.5.5,0,0,1,286.82,200.27Z"/><path class="cls-19" d="M290.71,185.28a.5.5,0,1,1-.5-.5A.5.5,0,0,1,290.71,185.28Z"/><path class="cls-19" d="M300.7,193.19a.5.5,0,0,1-1,0,.5.5,0,0,1,1,0Z"/><path class="cls-19" d="M314.37,208.8a.5.5,0,1,1-.49-.5A.49.49,0,0,1,314.37,208.8Z"/><path class="cls-19" d="M284.69,190.67a.5.5,0,0,1-.5.5.51.51,0,0,1-.5-.5.5.5,0,0,1,.5-.5A.5.5,0,0,1,284.69,190.67Z"/><path class="cls-19" d="M222,75a1.16,1.16,0,1,1-1.16-1.16A1.16,1.16,0,0,1,222,75Z"/><polygon class="cls-20" points="97.29 58 98.01 56.44 99.97 59.56 98.94 59.89 97.29 58"/><polygon class="cls-20" points="259.05 27.41 260.77 27.43 258.72 30.5 257.99 29.69 259.05 27.41"/><polygon class="cls-20" points="117.34 215.86 118.04 214.29 120.05 217.38 119.02 217.73 117.34 215.86"/><polygon class="cls-20" points="270.42 102.14 274.27 100.36 274.93 101.25 272.16 103.17 270.42 102.14"/><polygon class="cls-20" points="320.5 199.24 324.35 197.46 325.01 198.35 322.24 200.27 320.5 199.24"/><polygon class="cls-20" points="256.49 267.92 256.89 263.7 257.99 263.58 258.26 266.94 256.49 267.92"/><path class="cls-20" d="M202.84,200.27a7.13,7.13,0,0,0-.53-.58,9.06,9.06,0,0,0-3.08-1.94,50.34,50.34,0,0,1-9.85-5.67c-1.52-1.1-2.61-2-2.93-2.19l-.09-.09a10.65,10.65,0,0,0-8.55-.46c-9.86,3.27-18.68,17.36-11.8,20.78,8.91,4.43,6.05,17,14.94,18.46a12.85,12.85,0,0,0,8.6-1.46,15.09,15.09,0,0,0,1.91-1.23c3.45-2.57,6.38-6.62,9.36-11.13a23.64,23.64,0,0,0,3.13-6.52C204.88,205,204.44,202.24,202.84,200.27Zm-25.49,10.49c-2.84,2.13-5.27-1.91-5.27-1.91-1.84-2.64,4-4.52,4-4.52S180.19,208.64,177.35,210.76Zm2.94-12.69c-2.44-2.55.81-7.7,2.33-7.39s5.68,8.42,3.55,9.59S180.64,198.43,180.29,198.07Z"/><path class="cls-21" d="M200.82,214.76c-5.56,8.42-11,15.25-19.87,13.82s-6-14-14.94-18.46c-6.88-3.42,1.94-17.51,11.8-20.78a85.13,85.13,0,0,1,8.64.55c.32.24,1.41,1.09,2.93,2.19a7.13,7.13,0,0,0-1.93,1.49c-.86,1.17,2,6.4-.69,8.46s-3.67-2.06-4.84,0-1.75,2.39-.78,5.82-1.36,10.29,8.38,11.64c8.64,1.19,13.91-12.49,12.79-19.8C205.44,202.78,205.24,208.06,200.82,214.76Z"/><path class="cls-22" d="M194.78,175a11.44,11.44,0,0,1-.42,3c-1.62,5.66-7.37,5.42-7.37,5.42s4.14,2.06,1.59,6a5.66,5.66,0,0,1-6.83,2.23c.15.26,2.52,4.7-3.34,13s-16.85,6.42-16.85,6.22c-.39.43-8.93,9.82-17.32,2.53-8.58-7.48.79-16.06.79-16.06s-3.49-.48-3-5.4a5.07,5.07,0,0,1,4.92-4.93s-7.47-4.6-2.86-11S155.37,175,155.37,175a7.56,7.56,0,0,1,3.49-7.3c4.29-2.86,8.9,2.38,8.9,2.38V170c-.15-.76-1.43-9,8.11-12,10-3.18,11.92,7.94,11.92,7.94S194.94,166.29,194.78,175Z"/><path class="cls-23" d="M187,183.45s4.14,2.06,1.59,6a5.66,5.66,0,0,1-6.83,2.23c.15.26,2.52,4.7-3.34,13s-16.85,6.42-16.85,6.22c-.39.43-8.93,9.82-17.32,2.53-8.58-7.48.79-16.06.79-16.06s-3.49-.48-3-5.4a5.07,5.07,0,0,1,4.92-4.93s-7.47-4.6-2.86-11S155.37,175,155.37,175a7.56,7.56,0,0,1,3.49-7.3c4.29-2.86,8.9,2.38,8.9,2.38s-6,0-7.35,4c-1.27,3.65,2.85,5.49,3.57,5.78-1-.35-8.59-2.87-10.52,3.07-2.07,6.35,6.72,5.77,6.72,5.77s-6.88,1.5-5.93,7.48,6.73,3,6.73,3-2.69,4.66,1.13,7,6.28-7,6.28-7,4.22,5.48,8.51,1.34.95-15.34.95-15.34,3.45,5,6.5,3.47-1.26-7.53-1.26-7.53,8.23,4.26,11.27-3.11C192.74,183.69,187,183.45,187,183.45Z"/><path class="cls-24" d="M145.51,202a1.52,1.52,0,0,1,.8,2.86C144.72,206,142.81,202.52,145.51,202Z"/><path class="cls-24" d="M150.54,201.8c.69-.63,3.07,1.17,1.61,2.34S148.93,203.26,150.54,201.8Z"/><path class="cls-24" d="M147.1,207.76c3-1.84,6.25.48,3.34,4.14S143.28,210.15,147.1,207.76Z"/><path class="cls-24" d="M154.05,207.05c1.89-1.78,5.56,0,3.66,2.77S151.27,209.67,154.05,207.05Z"/><path class="cls-25" d="M200,211.07a3.79,3.79,0,0,0-1.44-3.42.59.59,0,0,0-.57,0c-.92.62-7.61,8.83-6.3,10a1.89,1.89,0,0,0,.73.41c1.24.38,3.07-.37,4.9-2.12h0Z"/><path class="cls-26" d="M197.28,215.94h0l-.65.3s-.93-4.87,3.33-5.18Z"/><path class="cls-27" d="M193.06,210.87c-1.45.76-3.54-1-4.17-2.51a2.08,2.08,0,0,1-.18-.8c0-1,2.12,2.29,3.34,1.58s-.7-2.57,1-2.8a.9.9,0,0,1,.75.21C194.74,207.35,194.48,210.11,193.06,210.87Z"/><path class="cls-28" d="M197.33,202.52c.48.53.62,1.18.31,1.47s-.95.08-1.43-.45-.63-1.18-.32-1.46S196.85,202,197.33,202.52Z"/><path class="cls-28" d="M185.6,214.92c.48.53.62,1.19.31,1.47s-.95.09-1.43-.44-.63-1.19-.32-1.47S185.12,214.39,185.6,214.92Z"/><g class="cls-29"><circle class="cls-27" cx="188.4" cy="223.24" r="4.06"/><path class="cls-27" d="M204,208.24a3.53,3.53,0,0,1-1,.15,4.06,4.06,0,0,1-.07-8.12C204.44,202.24,204.88,205,204,208.24Z"/></g><path class="cls-30" d="M195.71,212.31a26.08,26.08,0,0,0-3.34,5.76,1.89,1.89,0,0,1-.73-.41c-1.31-1.22,5.38-9.43,6.3-10a.59.59,0,0,1,.57,0C199.39,209.06,197.36,210.39,195.71,212.31Z"/><path class="cls-31" d="M193.06,210.87c-1.45.76-3.54-1-4.17-2.51.92,1.06,2.21,2.08,3.57,1.76s1.51-2,1.35-3.57C194.74,207.35,194.48,210.11,193.06,210.87Z"/><path class="cls-32" d="M177.72,163.34c3.33.13,5.14,3,4.66,5.15,0,0,5.86-.19,6.51,4.56s-5.31,5.47-8.41,3.33c0,0,2.86,6.14.23,6.52s-3-7.12-3-7.12-2.49,3.59-4.87,1.38,4.29-4.61,4.29-4.61-3.82-.51-3.82-4.06S175.82,163.26,177.72,163.34Z"/><path class="cls-33" d="M200,274.55c-2.89-14.39-15.16-7-19.57-14.13-2.51-4.09.55-7.35,5.56-7.24a14.68,14.68,0,0,1,6.11,1.59c2.83,1.4,4.7,4.56,5.93,8v0C200.4,269.19,200.42,276.5,200,274.55Z"/><path class="cls-33" d="M236.3,281.77c-7.92-3.23-15.48-8.86-22.65-7A40.23,40.23,0,0,1,225.36,270h0a22.86,22.86,0,0,1,11.69.17,15.28,15.28,0,0,1,2,.79C247.49,275.07,243.71,284.78,236.3,281.77Z"/><path class="cls-3" d="M200,274.55c-2.89-14.39-15.16-7-19.57-14.13-2.51-4.09.55-7.35,5.56-7.24-4.45,1.07-2.11,5.7,2.41,6.61s7,5.19,9,5.19c1.08,0,1-1.16.67-2.22C200.4,269.19,200.42,276.5,200,274.55Z"/><path class="cls-3" d="M236.3,281.77c-7.92-3.23-15.48-8.86-22.65-7A40.23,40.23,0,0,1,225.36,270c-.47.17-5.72,2.13-.7,3,5.24,1,6,2.39,11.72,4.05s6.58-3.94,2.68-6.14C247.49,275.07,243.71,284.78,236.3,281.77Z"/><path class="cls-34" d="M188,254.49c2.15-.08,4.05,2.62,1.19,2.38S184.66,254.61,188,254.49Z"/><path class="cls-34" d="M236.38,271.17c4.07.92,3.86,4.06,0,3.1S231.72,270.13,236.38,271.17Z"/><path class="cls-33" d="M166.49,292.91c-24-12.4-16.72-50.31-20.38-70.41A134,134,0,0,0,143,209a64.44,64.44,0,0,0-6.41-15.57,2.3,2.3,0,0,1-.21-.33l-.1-.16c-.3-.46-.61-.92-.91-1.34s-.45-.58-.68-.87c.52-.16,1-.33,1.52-.53a21.27,21.27,0,0,0,2.9-1.46l.66-.43.24-.15.53.55.19.2a50,50,0,0,1,4.05,5.2c5.09,7.5,10.2,19.22,12.12,37.09,4.32,40.38,11.38,43.28,22.14,49.82,9.82,6,15.35.88,20,5.66a10.18,10.18,0,0,1,.82,1h0a7.32,7.32,0,0,1,.5.7C205.38,295.88,190.47,305.3,166.49,292.91Z"/><path class="cls-35" d="M145.65,183.94l-2.74,2.87-1.49,1.56-.73.77-2,2.12-2,2.06L135.14,195a1.93,1.93,0,0,1-2.68.11l-5-4.41a1.92,1.92,0,0,1-.08-2.81,1.92,1.92,0,0,0,0-2.77c-2.12-2-6.21-5.82-9.89-9a20.16,20.16,0,0,0-13.78-5c-3.55.08-7.86.2-11.71.35a20.81,20.81,0,0,1-14.39-5C62.36,153.2,23.83,119.32,4,96.59a16.14,16.14,0,0,1-.18-21C9.3,69,17,60.59,25,54.28a16.05,16.05,0,0,1,20.24.39c.58.47,1.16,1,1.78,1.48h0c17.63,14.83,52.59,45.23,72.08,69a20.84,20.84,0,0,1,4.73,14.25c-.18,3.6-.37,8.11-.46,12.74a20.13,20.13,0,0,0,3.14,11.21,134.25,134.25,0,0,0,9.23,13.1,1.92,1.92,0,0,0,2.69.26l.31-.23a1.92,1.92,0,0,1,2.64.2l4.23,4.63A1.94,1.94,0,0,1,145.65,183.94Z"/><path class="cls-33" d="M140.69,189.14,140,190l-1.15,1.58-1.59,2.15a4.08,4.08,0,0,1-.6-.43l-.43-.38c-1.21-1.11-3.48-3.59-6.55-8.72-.44-.73-.89-1.45-1.37-2.16,0,0,0,0,0,0-.15-.25-.32-.49-.5-.74v0c-4.73-6.73-11.43-12.51-20.34-13.89-10.17-1.59-11.12,2.22-21.29-1.59s-49.58-41.32-61-52.14S-.59,92.36,4.17,86.32A5.39,5.39,0,0,1,6.63,84.6h0c4.15-1.49,11.32.5,19.59,5.15a102.55,102.55,0,0,1,16.07,11.38c16.52,14.13,24.47,15.45,44.18,22.1s29.24,25.09,36.55,38.11c4.35,7.76,6.56,13.37,9.55,18.29.15.26.31.51.47.76l0,.05a31.56,31.56,0,0,0,2,2.93h0a35.78,35.78,0,0,0,4.59,4.94c.25.23.5.46.76.68Z"/><path class="cls-34" d="M199.07,286.68c-4.69-4.78-10.22.31-20-5.66-10.76-6.54-17.82-9.44-22.14-49.82-1.92-17.87-7-29.59-12.12-37.09a50.2,50.2,0,0,0-3.77-4.88h0s-14.77-24.4-22.4-40.61-28.52-28-44.93-31.47S23.1,76.5,6.67,84.59c-6.33,3.12,7,9.36,24.84,21.12s26.7,24.4,46.4,24.76,25.48,8.43,38.15,25.14c9.54,12.6,17.84,26.78,22.13,31.89l.91,1.24L140,190c4.85,6.7,9.2,13.61,11.85,25.16,3.87,16.9,2.92,25.11,7.93,44.61s14.06,23.3,21.45,25.21,14.85-.89,18.62,2.65A10.18,10.18,0,0,0,199.07,286.68Z"/><path class="cls-3" d="M200.4,288.36a11.73,11.73,0,0,0-1.33-1.68c1.08,1.89,4.09,5.24-5.16,6.67s-20,.71-30-9.78-11.45-32.18-10.39-45-8.45-40.82-14.82-47.31c0,0,.25-.21-1-1.52-3.93-4-7-9.88-7.38-10.22,0,0-15-22.77-29.56-22.34-14.11.41-53.07-25.23-68.35-50.9-.56-.93-1.08-1.87-1.58-2.8a42.34,42.34,0,0,1-4.52-13.74c-.1-.66-.18-1.32-.24-2C24.14,67.74,38.1,52,47.06,56.15c-.62-.51-1.2-1-1.78-1.48A16.05,16.05,0,0,0,25,54.28C17,60.59,9.3,69,3.79,75.59a16.14,16.14,0,0,0,.18,21c19.86,22.73,58.39,56.61,73.59,69.75a20.81,20.81,0,0,0,14.39,5c3.85-.15,8.16-.27,11.71-.35a20.16,20.16,0,0,1,13.78,5c3.68,3.22,7.77,7,9.89,9a1.92,1.92,0,0,1,0,2.77,1.92,1.92,0,0,0,.08,2.81l5,4.41a1.93,1.93,0,0,0,2.68-.11l1.44-1.52A64.12,64.12,0,0,1,143,209a134,134,0,0,1,3.12,13.5c3.66,20.1-3.61,58,20.38,70.41S205.38,295.88,200.4,288.36Z"/><path class="cls-36" d="M79.08,88.88c20.5,17.38,28.93,28.78,33.69,37s3.89,19.19,5.44,24.85-1.79,3.66-2.34-1.06-1.74-18.07-8-23.79-27.54-29-32.62-33.75S71.77,82.68,79.08,88.88Z"/><path class="cls-36" d="M68.37,80.28C70,82,70.56,84,69.72,84.81s-2.81,0-4.4-1.74S63.13,79.3,64,78.53,66.78,78.54,68.37,80.28Z"/><path class="cls-20" d="M145.92,154.66c1.91-3.34,3.22-1.55,3.75,1.37a3.33,3.33,0,0,0,3.56,2.68s-1.5,1.44-4.88,0S145.92,154.66,145.92,154.66Z"/><path class="cls-22" d="M333.91,109.39s-3.05,5,1.44,8.25C335.35,117.64,338,111.9,333.91,109.39Z"/><path class="cls-22" d="M225.76,104.3a4.59,4.59,0,0,1,5.06-4.16S232.35,103.09,225.76,104.3Z"/><path class="cls-22" d="M263.18,257.67a4.6,4.6,0,0,1,5.06-4.17S269.77,256.46,263.18,257.67Z"/><path class="cls-22" d="M265.79,206.41a4.58,4.58,0,0,1,5-4.17S272.37,205.2,265.79,206.41Z"/><path class="cls-22" d="M210,219.39a4.59,4.59,0,0,1-2.25-6.15S211,212.78,210,219.39Z"/><path class="cls-22" d="M213.56,281.58a4.58,4.58,0,0,1-6.38,1.45S207.14,279.7,213.56,281.58Z"/><path class="cls-22" d="M146.57,100.46a4.59,4.59,0,0,1-4.18-5S145.34,93.87,146.57,100.46Z"/><path class="cls-37" d="M205.39,18.89s-.29-5.94,6.44-8.31a15.67,15.67,0,0,1,12.07.59S219.53,21.07,205.39,18.89Z"/><path class="cls-22" d="M223.6,11.74s-1.87,8.54-15.73,7.15c0,0,3.56-6.13,1.19-11.28S205.39,2,205.39,2a9.58,9.58,0,0,1,1.38-1.1,4,4,0,0,1,3.11-.82c1.75.54,1.77,6.14,4.79,8.65a5.19,5.19,0,0,0,1.12.71A27.31,27.31,0,0,0,223.6,11.74Z"/><path class="cls-38" d="M223.6,11.74s-1.87,8.54-15.73,7.15c0,0,3.56-6.13,1.19-11.28S205.39,2,205.39,2a9.58,9.58,0,0,1,1.38-1.1c-.23.42-.07,1.18,1.5,2.54,3.16,2.78,2.08,5.78,4.35,6.61s2.88-.41,2-1.32a5.19,5.19,0,0,0,1.12.71A27.31,27.31,0,0,0,223.6,11.74Z"/><path class="cls-39" d="M239,54.42h0A50.1,50.1,0,0,0,239.73,42c-.58-9.71-4.2-22.55-18.2-28.64,0,0,.05-.17.16-.46.59-1.38,2.94-5.34,10.33-4.69,7,.62,12,7.4,14.88,14.3v0h0a41.66,41.66,0,0,1,1.93,5.66C251,36.51,249.87,50.58,239,54.42Z"/><path class="cls-39" d="M219,60.46a6.37,6.37,0,0,1-.72.72c-1.64,1.44-6.12,4.22-13.34.07-9.15-5.26-16.76-23-11.17-34.84v0c.1-.19.18-.37.28-.55,5-9.75,11.67-7.89,13.88-6.92a5.17,5.17,0,0,1,.76.39c-6,12-2.95,22.66,1.33,30.11A44.16,44.16,0,0,0,219,60.46Z"/><g class="cls-40"><path class="cls-27" d="M206.79,49.32c.42,1.22-1.09,2.83-3.35,3.59s-4.43.4-4.84-.82,1.09-2.83,3.35-3.59S206.38,48.1,206.79,49.32Z"/><path class="cls-27" d="M250,36.36c.41,1.22-1.09,2.82-3.35,3.59s-4.43.39-4.84-.83,1.09-2.83,3.35-3.59S249.61,35.14,250,36.36Z"/></g><path class="cls-41" d="M239,54.42a15.84,15.84,0,0,1-20.73,6.76c-5.52-2.74-9.74-8.71-12.11-15.58h0c-3.18-9.22-3-20,1.78-26.7a14.64,14.64,0,0,1,8.35-5.73,13.09,13.09,0,0,1,5.44-.28c9.52,1.52,17.23,13.34,19.19,25.11C241.87,43.93,241.4,49.85,239,54.42Z"/><path class="cls-42" d="M203.52,45.49a5.15,5.15,0,0,1,3.08-3.88,6,6,0,0,1,5.23,0"/><path class="cls-42" d="M235.17,35.47a5.14,5.14,0,0,1,3.09-3.88,6,6,0,0,1,5.23,0"/><path class="cls-27" d="M223.9,42.84c-3.16-.1-4.55-7.35-1.88-7.88.55-.11.74.12.8.5h0c.12.84-.38,2.41.77,2.82,1.69.59,1.89-1.68,3.67-.3S227.07,42.94,223.9,42.84Z"/><path class="cls-43" d="M226.87,11.38c3.78-1.64,11.36.09,12.46,4.25S237.76,19,236.17,17s-6.13-4.22-8-4.29S224.79,12.29,226.87,11.38Z"/><path class="cls-32" d="M219,14.7c2-.16,7.87,2.81,9,5.28s-.87,4.06-3.34,2-5.55-3.6-7.43-3.33S213.22,15.15,219,14.7Z"/><path class="cls-32" d="M229.54,22.92a2.1,2.1,0,1,1,2.34,3.49C229.45,28.39,227,24.67,229.54,22.92Z"/><path class="cls-31" d="M223.9,42.84c-3.16-.1-4.55-7.35-1.88-7.88.55-.11.74.12.8.5-.1-.1-1.1-1-1.29,2-.2,3.2,2.36,3.93,4.34,3.26s2-1.77,1.4-2.77C229.05,39.38,227.07,42.94,223.9,42.84Z"/><path class="cls-44" d="M239,54.42a15.84,15.84,0,0,1-20.73,6.76c-1.64,1.44-6.12,4.22-13.34.07-9.15-5.26-16.76-23-11.17-34.84-.11.64-2,12.15,3.06,16.84s9.11,2.49,9.33,2.35h0s6.56,11.95,17.77,12.61c9.47.57,15.18-4.62,16.66-13.46a49.57,49.57,0,0,0,.32-6.75s9.24-5,6-15.47a41.66,41.66,0,0,1,1.93,5.66C251,36.51,249.87,50.58,239,54.42Z"/><path class="cls-45" d="M244.09,42c-.59,4.76-7.32,8.46-18.61,11.78-9.69,2.85-18.7.49-19.69-3-.39-1.37.62-2.21,2.55-2.9A72.34,72.34,0,0,1,215.85,46c1.85-.41,3.86-.89,5.93-1.5,3.56-1.05,6.61-2,9.21-2.91,3.92-1.31,6.81-2.35,8.87-2.87C243.49,37.81,244.52,38.47,244.09,42Z"/><path class="cls-30" d="M217,48.94c0,1.88-3.07,2.07-5.65,2-1.79-.07-2.33-2-2.49-3.11a72.71,72.71,0,0,1,7.5-1.83A8.21,8.21,0,0,1,217,48.94Z"/><path class="cls-30" d="M241,42.2c-.37,1.48-3.68,2.57-6.45,2.94-2.22.28-2.86-2.47-3-3.57,3.93-1.32,6.82-2.35,8.88-2.87A7.42,7.42,0,0,1,241,42.2Z"/><path class="cls-46" d="M288.58,64.63c-5.05,22.53-34.65,42.22-48.37,27.58-3.84-4.09-6-10.38.44-18.07a4.63,4.63,0,0,1,.41-.49c.58-.66,1.22-1.34,1.93-2,3.43-3.28,8.43-6.79,15.48-10.47,15.81-8.24,15.78-19.07,16-26.64.11-4.44.32-7.75,3.83-8.75C287.81,23.05,293.64,42.09,288.58,64.63Z"/><g class="cls-47"><path class="cls-27" d="M244.76,74.48c-.44.85-1.87,1-3.19.32a3.8,3.8,0,0,1-.92-.66,4.63,4.63,0,0,1,.41-.49c.58-.66,1.22-1.34,1.93-2a.53.53,0,0,1,.17.08C244.48,72.38,245.2,73.62,244.76,74.48Z"/><path class="cls-27" d="M263.15,86.08c-.44.86-1.87,1-3.19.32s-2-1.92-1.6-2.78,1.87-1,3.19-.32S263.59,85.23,263.15,86.08Z"/></g><path class="cls-3" d="M288.58,64.63c-5.05,22.53-34.65,42.22-48.37,27.58-3.92-4.18-6.08-10.64.85-18.56a2.13,2.13,0,0,1-.34.43c-3.45,3.53-.52,12.29,9.2,11.64s20.71-7.77,30.56-20.2,4.27-33.8,2.07-31-4.66,1.09-5.57-.72c-.54-1.09-1.69-.18-2.52.73.11-4.44.32-7.75,3.83-8.75C287.81,23.05,293.64,42.09,288.58,64.63Z"/><path class="cls-20" d="M287,29.77a6.08,6.08,0,0,1-5.5-3.11,22,22,0,0,1-1.17,6.22c-2.52-2.14-2.85-7-3.1-6.22a17,17,0,0,1-3.5,6.22,18.3,18.3,0,0,1-.37-2.89c-.31-6.95,4.45-8.18,4.45-8.18a23,23,0,0,1-2.53-5.64c-.38-2.13,2.14-12,3.11-13a1.45,1.45,0,0,1,1.74-.06,4.7,4.7,0,0,1,1,.64s-2.91,9.71-2.91,11.85,3.11,6.22,3.11,6.22C285.92,22.2,287,29.77,287,29.77Z"/><path class="cls-27" d="M250.86,78.9a2.51,2.51,0,0,1-1.21-1.83c-.12-.9.27-1.76,1.07-1.84,1.39-.13.73,1.13,1.81,1.38s1.14-1.74,1.82-1.31a.5.5,0,0,1,.13.1C255.7,76.56,252.56,79.9,250.86,78.9Z"/><path class="cls-48" d="M243.51,70.67s2-1,3.46.3a2.51,2.51,0,0,1,.37,3.06"/><path class="cls-49" d="M259.44,80.76s2.27-1.1,3.87.33a2.79,2.79,0,0,1,.42,3.42"/><path class="cls-50" d="M257,83.43c.05.48-.58,1.38-1.64,2.28-2.49,2.1-7.35,4.21-11.35.93-5.73-4.7-2.1-11.09-.74-10.78l.13,0c1.16.4.26,2.14,3.88,4.45C252,83.39,256.79,81.8,257,83.43Z"/><path class="cls-30" d="M257,83.43c.05.48-.58,1.38-1.64,2.28-8.74.81-13.73-4.88-13.58-6.88a4.29,4.29,0,0,1,1.49-3l.13,0c1.16.4.26,2.14,3.88,4.45C252,83.39,256.79,81.8,257,83.43Z"/><path class="cls-51" d="M257.67,65c4.84-2,11.14-7.25,13.21-10.1s4.4-1.4,1.17,3.05-7.9,8.6-12.7,10S254.17,66.39,257.67,65Z"/><path class="cls-51" d="M274.52,50.88c2.07.65,3.54-5.9,2.46-7.25C275.23,41.43,272.45,50.24,274.52,50.88Z"/><path class="cls-52" d="M287,29.77a6.08,6.08,0,0,1-5.5-3.11,22,22,0,0,1-1.17,6.22c-2.52-2.14-2.85-7-3.1-6.22a17,17,0,0,1-3.5,6.22,18.3,18.3,0,0,1-.37-2.89c1.74,1.87,2.13-3.71,3.09-3.89s3.3,4.06,3.33,1.15,1.91-1.75,1.53-3.12-4.86-4.82-4.86-8.48c0-2.79,2.51-9.55,3.68-12.55a4.7,4.7,0,0,1,1,.64s-2.91,9.71-2.91,11.85,3.11,6.22,3.11,6.22C285.92,22.2,287,29.77,287,29.77Z"/><path class="cls-31" d="M250.86,78.9a2.51,2.51,0,0,1-1.21-1.83c2.56,2.49,4-.06,4.7-1.77a.5.5,0,0,1,.13.1C255.7,76.56,252.56,79.9,250.86,78.9Z"/><path class="cls-20" d="M189.81,88.75a9.07,9.07,0,0,1-.57,2.6A12.61,12.61,0,0,1,187,95.17a19.35,19.35,0,0,1-1.48,1.58c-.32.3-.68.63-1.06,1a21.64,21.64,0,0,1-3.17,2.2,8.58,8.58,0,0,1-5.62,1.35c-3.29-.7-12.11-14.7-17.29-23.35s-12.63-14.17-23.17-17.7c-3.08-1-5-2.26-5.94-3.39a2.33,2.33,0,0,1-.73-2.37c.51-1.21,2.79-1.48,5.63.47,5.5,3.77,14.87,6.26,15.61,4.6a.79.79,0,0,0-.05-.63c-.74-1.68-4.56-4.21-7.95-6.08a35.72,35.72,0,0,0-5-2.39c-.83-.25-1.72-1.58-2.26-3.07a8.25,8.25,0,0,1-.48-2.1c-.13-1.76.58-3.08,2.92-2.26a29.82,29.82,0,0,1,7,4.38c5,3.8,9.84,8.18,10.42,6s-.82-6.44-2.3-10.08c-.81-2-1.64-3.81-2.2-4.92-1.55-3.11,2.42-3.85,5,1.51a25.42,25.42,0,0,1,1,2.47c1.77,5.26,2.37,11.93,3.85,13.27.79.71,3.82,3.82,7.61,7.49l0,0a146.9,146.9,0,0,0,14,12.35c4,2.91,7.4,6.54,8.27,10.54A9.28,9.28,0,0,1,189.81,88.75Z"/><g class="cls-53"><path class="cls-18" d="M184.42,97.7a21.64,21.64,0,0,1-3.17,2.2c-2.77-3.45-12.53-15.5-21.7-25.45C149.69,63.75,134.5,58,129.23,56.81a2.33,2.33,0,0,1-.73-2.37,129.16,129.16,0,0,1,22.17,10.23C160.74,70.63,179.51,92,184.42,97.7Z"/><path class="cls-18" d="M189.24,91.35A12.61,12.61,0,0,1,187,95.17c-4.15-4.92-16.51-19.46-23.73-26.53-8.75-8.6-23.26-19.8-27.82-21-.35-.09-.66-.2-.95-.3a8.25,8.25,0,0,1-.48-2.1,19.33,19.33,0,0,1,4.59,1.17C146,49.1,177.51,76,189.24,91.35Z"/><path class="cls-18" d="M189.81,88.75c-4-4.44-16-17.69-20.46-21.79-5.43-5-11-10.15-12.34-11.65S154.93,43.63,152.4,41s-1.15-3.19.58-1.23,2.3,6.11,3.8,10.83S162,58,167.33,63.09l0,0a146.9,146.9,0,0,0,14,12.35C186.26,79,190.19,83.67,189.81,88.75Z"/></g><path class="cls-21" d="M134,45.24c-.13-1.76.58-3.08,2.92-2.26a29.82,29.82,0,0,1,7,4.38c-.64,1.69.69,2.22-1.68,4.6a2,2,0,0,0-.52.84,35.72,35.72,0,0,0-5-2.39c-.83-.25-1.72-1.58-2.26-3.07A8.25,8.25,0,0,1,134,45.24Z"/><path class="cls-21" d="M149.86,38.35c-1.55-3.11,2.42-3.85,5,1.51a25.42,25.42,0,0,1,1,2.47,15.71,15.71,0,0,1-3.24.83l-.57.11C151.25,41.25,150.42,39.46,149.86,38.35Z"/><path class="cls-21" d="M189.81,88.75a9.07,9.07,0,0,1-.57,2.6A12.61,12.61,0,0,1,187,95.17a19.35,19.35,0,0,1-1.48,1.58c-.32.3-.68.63-1.06,1a21.64,21.64,0,0,1-3.17,2.2,8.58,8.58,0,0,1-5.62,1.35c-3.29-.7-12.11-14.7-17.29-23.35s-12.63-14.17-23.17-17.7c-3.08-1-5-2.26-5.94-3.39a2.33,2.33,0,0,1-.73-2.37c.51-1.21,2.79-1.48,5.63.47,5.5,3.77,14.87,6.26,15.61,4.6l.35.06c4.61.7,17.41,20.06,24.67,26.11,6.21,5.18,12.36,6.89,14.84.34A9.28,9.28,0,0,1,189.81,88.75Z"/><path class="cls-22" d="M158.76,33.93a1.13,1.13,0,0,0,.22-.76c-.13-.74-1.23-.62-1.91-.3a4.74,4.74,0,0,0,1.27-3.44,1.5,1.5,0,0,0-.29-.91,1.25,1.25,0,0,0-1.44-.25,3.69,3.69,0,0,0-1.21,1c.07-1.13.13-2.26.19-3.39a1.48,1.48,0,0,0-.35-1.29c-.7-.53-1.55.46-1.88,1.27l-.82-.07a13.51,13.51,0,0,0,.12-3.59,1.81,1.81,0,0,0-.27-.94c-.51-.74-1.77-.46-2.27.29a4.33,4.33,0,0,0-.4,2.62,4,4,0,0,0-.91-1.73,1.38,1.38,0,0,0-1.81-.17,1.9,1.9,0,0,0-.41,1.55,13,13,0,0,0,.41,2.48,5.92,5.92,0,0,1-1.44-2.37,2.63,2.63,0,0,0-1.85-1.68h-.18c-.08.41-.15.82-.22,1.24,0,.16-.07.33-.09.49-.07-.18-.14-.36-.22-.54-.69-1.57-1.78-3.16-3.43-3.18a.82.82,0,0,0-.63.18.89.89,0,0,0-.22.58,4,4,0,0,0,.7,2.69c-1.14-1-2.57-2-4.11-1.82a1.21,1.21,0,0,0-1.07.72,1.33,1.33,0,0,0,.1.83A8.7,8.7,0,0,0,135.72,26a5.56,5.56,0,0,0-6.8-.87.89.89,0,0,0-.51.66.87.87,0,0,0,.31.61,5.91,5.91,0,0,0,2.07,1.46l-2.09-.45a1,1,0,0,0-.62,0c-.53.23-.3,1,0,1.49a8.52,8.52,0,0,0,3.6,2.67c-.41,1-2.55-.33-2.94.7a1,1,0,0,0,.15.84A3.82,3.82,0,0,0,131,34.8c-.51.08-1,.7-.7,1.18s1.23.43,1.91.45,1.53.66,1.12,1.21a1.35,1.35,0,0,1-.81.36,2.81,2.81,0,0,0-1.65,1.24,3.7,3.7,0,0,0-.45-1.58A1.28,1.28,0,0,0,129,37a.68.68,0,0,0-.37.28,2.06,2.06,0,0,0-1.81-1.61,1.53,1.53,0,0,0-1.26.68A2.81,2.81,0,0,0,124.2,35a4.62,4.62,0,0,0-3.8.31,2.48,2.48,0,0,0-1.4,1.33,1.66,1.66,0,0,0,.13,1.29,7,7,0,0,0-.9-.6,1,1,0,0,0-.62-.15c-.45.11-.5.73-.39,1.17A5,5,0,0,0,119,41.16a6.45,6.45,0,0,0-3.9.43l1.55,1.65c-1-.14-2.24-.15-2.71.73a1.71,1.71,0,0,0,.79,2.15,5,5,0,0,0,2.46.49l-1.67,1.66a13.17,13.17,0,0,0,3.91.95l-2.9,1.21c-.49.2-1,.49-1.12,1a.51.51,0,0,0,.24.5,5.8,5.8,0,0,0-3.38,2,1.27,1.27,0,0,0,.61,2.26,5,5,0,0,0,2.38.27,3,3,0,0,0-1.84,1.94,17.87,17.87,0,0,0,5.65.25,4.91,4.91,0,0,0-1.68.92,1.47,1.47,0,0,0,1.47,2.53,4.84,4.84,0,0,0,1.9-1.22,10.31,10.31,0,0,0-1.69,2.47,3.37,3.37,0,0,0,0,2.91c.2.33.58.65,1,.55a1.15,1.15,0,0,0,.54-.44l1.56-1.95a2.33,2.33,0,0,0,1.49,3.1.57.57,0,0,0,.48,0c.17-.11.19-.34.21-.54,0-.75.09-1.51.14-2.25a4.62,4.62,0,0,0,1,2.44c.25.3.61.59,1,.47a1,1,0,0,0,.48-.44,4.35,4.35,0,0,0,.71-2.62A2.89,2.89,0,0,0,130.39,67a2.83,2.83,0,0,0-.2-1.79,5.73,5.73,0,0,0,4,1,3.72,3.72,0,0,0-1.73-2.35A2.15,2.15,0,0,0,135.09,62a2.75,2.75,0,0,0-2.73-2.63,3.49,3.49,0,0,0,2.41-.85,2,2,0,0,0,.46-2.38c-.66-1.13-2.62-1.39-2.68-2.71a12.69,12.69,0,0,0,2.54-.06.9.9,0,0,0,.6-.24.86.86,0,0,0,.11-.61,4.92,4.92,0,0,0-1.27-2.77,5.65,5.65,0,0,0,2.37,1.06,1.16,1.16,0,0,0,1.16-.26,1.22,1.22,0,0,0,.13-.94,7.18,7.18,0,0,0-.85-2.4,1,1,0,0,0-.09-.18l.23.18a12.65,12.65,0,0,0,3.5,1.9,5.14,5.14,0,0,0,.6-4.76.25.25,0,0,0,0-.09l.07.06a2.62,2.62,0,0,0,2.08.88,4.75,4.75,0,0,0-.12-3.34,5.05,5.05,0,0,0,2.64,2l.12-.27a6.63,6.63,0,0,0,.25-4.52c.77,1.53,2,3.31,3.68,3.1a6.45,6.45,0,0,0,.23-2.86,4,4,0,0,0,.71,1.81,1.26,1.26,0,0,0,2.29-1,5.16,5.16,0,0,0,3,0,1.81,1.81,0,0,0,.81-.43.94.94,0,0,0-.07-1.24.89.89,0,0,0-.78-.22,4,4,0,0,0,1.61-1.68l-1.82-.2A6.41,6.41,0,0,0,158.76,33.93Zm-5.31,6a2.12,2.12,0,0,0-.1-.36C153.65,39.36,153.45,39.9,153.45,39.9Z"/><path class="cls-25" d="M186.89,85.07a8.4,8.4,0,0,1-1,2.72,4.36,4.36,0,0,1-.24.41h0a13,13,0,0,1-2.16,2.61h0a13.71,13.71,0,0,1-1.12,1,17,17,0,0,1-1.5,1.07h0a10.42,10.42,0,0,1-2.77,1.27c-4.47,1.23-6.55-2.56-5.4-4.21a6.29,6.29,0,0,1,3.11-2.14,19.39,19.39,0,0,0,3.47-1.8s0,0,0,0l.46-.34a5,5,0,0,0,1.7-2h0c.57-1.23.54-2.34,1.81-3.06a3.94,3.94,0,0,1,.65-.3C185.65,79.63,187.43,81.89,186.89,85.07Z"/><path class="cls-30" d="M175.39,90.74a2.08,2.08,0,0,1-2.69-.8,6.29,6.29,0,0,1,3.11-2.14l.07.13C176.14,88.42,176.88,90.06,175.39,90.74Z"/><path class="cls-30" d="M178.81,89.06c-1.43,1-2.61-.64-2.93-1.13l-.07-.13a19.39,19.39,0,0,0,3.47-1.8C179.59,86.67,180.09,88.18,178.81,89.06Z"/><path class="cls-30" d="M182.17,86.73c-1.26,1.32-2.63-.41-2.87-.74l.46-.34a5,5,0,0,0,1.7-2h0s0,0,.05,0C181.82,83.92,183.42,85.41,182.17,86.73Z"/><path class="cls-30" d="M184.5,83.24c-.95,1.66-2.68.61-3,.42,0,0,0,0-.05,0h0c.57-1.23.54-2.34,1.81-3.06C183.92,80.88,185.31,81.81,184.5,83.24Z"/><path class="cls-30" d="M180.92,92.94l0-.06a10.42,10.42,0,0,1-2.77,1.27s-1.17-1.51.28-2.35c1.07-.62,2,.31,2.35.84v0a1.44,1.44,0,0,1,.15.21S180.92,92.92,180.92,92.94Z"/><path class="cls-30" d="M183.61,91l-.11-.12a13.71,13.71,0,0,1-1.12,1,17,17,0,0,1-1.5,1.07s0,0,0,.07l0-.06s-.08-.13-.14-.22v0a1.73,1.73,0,0,1,.21-2.4,1.8,1.8,0,0,1,2.39.39s0,0,0,0,.13.12.17.17Z"/><path class="cls-30" d="M185.67,88.19h0a13,13,0,0,1-2.16,2.61l.1.13-.11-.12a1.54,1.54,0,0,1-.16-.18s0,0,0,0c-.43-.53-1.09-1.6-.24-2.44a1.83,1.83,0,0,1,2.29-.21s0,0,0,0l0,0,0,0h0A.93.93,0,0,1,185.67,88.19Z"/><path class="cls-30" d="M186.89,85.07a8.4,8.4,0,0,1-1,2.72,1.76,1.76,0,0,1-.44.26h0l0,0,0,0a1.81,1.81,0,0,1-.48-2.36A1.3,1.3,0,0,1,186.89,85.07Z"/><path class="cls-27" d="M177.87,84.38c-1.73,1.13-3.11-5-3.11-5h0c.6-.27,1.63,3.72,2.23,3s.43-2.08,1.29-2c.35,0,.62.49.72,1.1A2.89,2.89,0,0,1,177.87,84.38Z"/><path class="cls-28" d="M169.23,84.13A1.08,1.08,0,0,1,169,85.6c-.42.21-1-.1-1.31-.69s-.21-1.26.22-1.47S168.93,83.53,169.23,84.13Z"/><path class="cls-28" d="M179.52,75.49a1.08,1.08,0,0,1-.23,1.47c-.42.22-1-.09-1.32-.69a1.08,1.08,0,0,1,.23-1.47C178.62,74.58,179.21,74.89,179.52,75.49Z"/><path class="cls-23" d="M138.19,49.59a1.22,1.22,0,0,1-.13.94,1.16,1.16,0,0,1-1.16.26,5.65,5.65,0,0,1-2.37-1.06,4.92,4.92,0,0,1,1.27,2.77.86.86,0,0,1-.11.61.9.9,0,0,1-.6.24,12.69,12.69,0,0,1-2.54.06c.06,1.32,2,1.58,2.68,2.71a2,2,0,0,1-.46,2.38,3.49,3.49,0,0,1-2.41.85A2.75,2.75,0,0,1,135.09,62a2.15,2.15,0,0,1-2.66,1.86,3.72,3.72,0,0,1,1.73,2.35,5.73,5.73,0,0,1-4-1,2.83,2.83,0,0,1,.2,1.79,2.89,2.89,0,0,1-2.63-2.43,4.35,4.35,0,0,1-.71,2.62,1,1,0,0,1-.48.44c-.37.12-.73-.17-1-.47a4.62,4.62,0,0,1-1-2.44c-.05.74-.1,1.5-.14,2.25,0,.2,0,.43-.21.54a.57.57,0,0,1-.48,0,2.33,2.33,0,0,1-1.49-3.1l-1.56,1.95a1.15,1.15,0,0,1-.54.44c-.38.1-.76-.22-1-.55a3.37,3.37,0,0,1,0-2.91,10.31,10.31,0,0,1,1.69-2.47,4.84,4.84,0,0,1-1.9,1.22,1.47,1.47,0,0,1-1.47-2.53,4.91,4.91,0,0,1,1.68-.92,17.87,17.87,0,0,1-5.65-.25,3,3,0,0,1,1.84-1.94,5,5,0,0,1-2.38-.27,1.27,1.27,0,0,1-.61-2.26,5.8,5.8,0,0,1,3.38-2,.51.51,0,0,1-.24-.5c.08-.52.63-.81,1.12-1l2.9-1.21a13.17,13.17,0,0,1-3.91-.95l1.67-1.66a5,5,0,0,1-2.46-.49A1.71,1.71,0,0,1,114,44c.47-.88,1.72-.87,2.71-.73l-1.55-1.65a6.45,6.45,0,0,1,3.9-.43,5,5,0,0,1-1.82-2.79c-.11-.44-.06-1.06.39-1.17a1,1,0,0,1,.62.15,7,7,0,0,1,.9.6,1.66,1.66,0,0,1-.13-1.29,2.48,2.48,0,0,1,1.4-1.33,4.62,4.62,0,0,1,3.8-.31,2.81,2.81,0,0,1,1.37,1.37,1.53,1.53,0,0,1,1.26-.68,2.06,2.06,0,0,1,1.81,1.61A.68.68,0,0,1,129,37a1.28,1.28,0,0,1,1.41.62,3.7,3.7,0,0,1,.45,1.58A2.81,2.81,0,0,1,132.52,38a1.35,1.35,0,0,0,.81-.36c.41-.55-.44-1.21-1.12-1.21s-1.53.11-1.91-.45.19-1.1.7-1.18a3.82,3.82,0,0,1-2.06-1.71,1,1,0,0,1-.15-.84c.39-1,2.53.33,2.94-.7a8.52,8.52,0,0,1-3.6-2.67c-.35-.45-.58-1.26,0-1.49a1,1,0,0,1,.62,0l2.09.45a5.91,5.91,0,0,1-2.07-1.46.87.87,0,0,1-.31-.61.89.89,0,0,1,.51-.66,5.56,5.56,0,0,1,6.8.87,8.7,8.7,0,0,1-1.38-2.56,1.33,1.33,0,0,1-.1-.83,1.21,1.21,0,0,1,1.07-.72c1.54-.21,3,.78,4.11,1.82a4,4,0,0,1-.7-2.69.89.89,0,0,1,.22-.58.82.82,0,0,1,.63-.18c1.65,0,2.74,1.61,3.43,3.18a2.08,2.08,0,0,0-2.1,1.37,2.13,2.13,0,0,0,1.31,2.6,10,10,0,0,0-3.94,0,4.91,4.91,0,0,0,.42,2,2,2,0,0,0-3-.29,2.56,2.56,0,0,0,0,3.42,3.53,3.53,0,0,0,3.32.9A2.34,2.34,0,0,0,139,38a3,3,0,0,0-2.11.3,1.14,1.14,0,0,0-.21,1.64,4.27,4.27,0,0,0-5.56,1.85,2.38,2.38,0,0,0-1.65,2.14,6.47,6.47,0,0,0-1.14-2,2.88,2.88,0,0,0-2.47-1.26c-1,.12-1.68,1.41-1,2.11a2.08,2.08,0,0,0-3.13.49,3.27,3.27,0,0,0,.29,3.46A8.23,8.23,0,0,0,124.79,49a1.92,1.92,0,0,0,.83,3.65,2.73,2.73,0,1,0,3,4.52,2.06,2.06,0,0,0,0,2.56,2.09,2.09,0,0,0,2.51.47c1.46-.8-2.1-3.93-.47-4.27,2-.44.41-3.57.1-5.51a1.71,1.71,0,0,0,2.08,1c1-.22.35-2,.55-2.33,0,0,1.65.32,1.65.31.78,0,.78-.55.93-1,.4-1.11-.38-2.39,0-3.51a3.21,3.21,0,0,0,.3,1.68,1.23,1.23,0,0,0,1,.6A7.18,7.18,0,0,1,138.19,49.59Z"/><path class="cls-54" d="M177.87,84.38c-1.73,1.13-3.11-5-3.11-5h0c.46,1.66,1.48,4.55,2.87,4.26.73-.16,1.14-1.05,1.37-2.11A2.89,2.89,0,0,1,177.87,84.38Z"/><path class="cls-55" d="M157.29,56c.53-.38,13.87,11.75,13.69,13.48s-.31,3.71-3.15,0S156.08,56.84,157.29,56Z"/><path class="cls-55" d="M171.18,72.64a1.4,1.4,0,1,1,1.4,1.4A1.4,1.4,0,0,1,171.18,72.64Z"/><path class="cls-32" d="M148.79,27.93c-.83-1,.55-2.56,1.59-2.31s.63,3.05.63,3.05,1.31-1.77,2-.39a2.15,2.15,0,0,1-.3,2.4,1.57,1.57,0,0,1,1.84,1.06c.52,1.38-1.28,2.42-1.28,2.42s1.82.17,1.64,1.21-3.17-.39-3.17-.39a3.73,3.73,0,0,1-1.17,1.58c-.69.41-.46-2.92-.46-2.92s-.12,2.25-1.55,1.73,1-4,1-4-2.71,1.83-2.82,0,2.1-1.57,2.1-1.57-2.69-.14-2.1-2.19S148.79,27.93,148.79,27.93Z"/><path class="cls-56" d="M311.41,81.18a1.9,1.9,0,0,0-1.85.66,1.32,1.32,0,0,0,.49,1.64,2.59,2.59,0,0,0,1.81.33,2.19,2.19,0,0,0,1.83-1.12,2.11,2.11,0,0,0-.67-2.18,4,4,0,0,0-4.75-.65,3.44,3.44,0,0,0-1.18,4.51,3.76,3.76,0,0,0,1.44,1.33A5,5,0,0,0,315,84a3.77,3.77,0,0,0-.45-4.66,6.19,6.19,0,0,0-1.4-.84,7.58,7.58,0,0,0-3.36-1,4.47,4.47,0,0,0-3.29,1.76,6.92,6.92,0,0,0-1.34,3.55"/><path class="cls-56" d="M324,89.29a1.9,1.9,0,0,0-1.84.66,1.33,1.33,0,0,0,.48,1.65,2.6,2.6,0,0,0,1.82.32,2.17,2.17,0,0,0,1.83-1.12,2.11,2.11,0,0,0-.67-2.17A4,4,0,0,0,320.9,88a3.44,3.44,0,0,0-1.19,4.51,3.84,3.84,0,0,0,1.44,1.33,5,5,0,0,0,6.51-1.66,3.77,3.77,0,0,0-.45-4.66,5.54,5.54,0,0,0-1.4-.84,7.42,7.42,0,0,0-3.36-1,4.44,4.44,0,0,0-3.28,1.75A6.81,6.81,0,0,0,317.83,91"/><path class="cls-22" d="M347.56,54.17c-.75,2.7-1.38,5-.89,6.32,1.66,4.47-.33,19.53-7.78,23s-2.81,8.28-8.77,13.9q-.28.27-.57.51c-.19.16-.38.32-.58.46s-.4.29-.61.42l0,0a10.65,10.65,0,0,1-1.22.7,12.64,12.64,0,0,1-1.3.59q-.63.25-1.29.45l-.92.26-.54.13-.57.13-.29.06-1,.19c-.81.14-1.65.26-2.51.36l-.75.1c-.51,0-1,.12-1.53.18l-1.8.23c-.84.12-1.67.25-2.51.41l-1.25.27c-.41.09-.83.2-1.24.32a5.36,5.36,0,0,0-.57.17,19.52,19.52,0,0,0-1.9.67l-.59.25-.49.25a11.84,11.84,0,0,0-1.09.63l-.51.34-.43.31-.19.14-.36.3a4.54,4.54,0,0,0-.48.39,23,23,0,0,0-2.76,2.82l-.49.6-.48.62c-.32.42-.62.84-.91,1.25-.08.1-.14.2-.21.3l-.42.61c-.8,1.21-1.49,2.36-2,3.3-.12.21-.23.4-.35.59l-.18.32c-.58,1-1,1.58-1.18,1.6a.15.15,0,0,1-.09,0,12.45,12.45,0,0,0-1.89-1.52c-1.28-.91-2.79-1.91-3.26-2.21l-.14-.09.2-.2a40.61,40.61,0,0,0,5.91-7c4.28-6.45,5.35-12.69,6.21-18.9.29-2.12.56-4.24.92-6.36,0-.15.05-.29.08-.43,2-10.08,12-7.13,11.84-14.47a25.83,25.83,0,0,1,1.13-8.78,14,14,0,0,1,6.32-7.94c1.83-1.08,3-3.73,4.32-6.61h0c1.22-2.67,2.55-5.53,4.62-7.48h0c2.4-2.27,5.8-3.32,11.19-1.42h0c.28.1.56.2.85.32s.6.24.88.37C351.68,39.87,349.29,48.07,347.56,54.17Z"/><path class="cls-57" d="M343.08,35.91c-.31,1.23-.76,2.84-1.38,4.76A107.12,107.12,0,0,1,335.84,55c-.21.42-.42.85-.64,1.28v0c-1.58,3.08-3.42,6.37-5.58,9.8-1.06,1.68-2.21,3.46-3.42,5.29-.46.7-.93,1.41-1.41,2.12-5.74,8.61-12.59,18.29-18.42,26.6S295.56,115.6,294,118.65c-.09.16-.16.3-.23.44-2.94,6.13-6.64-3.14-6.64-3.14s.55-.55,1.59-1.65c1.27-1.37,3.32-3.6,6-6.7l0,0c3.37-3.89,7.74-9.15,12.89-15.79,6.33-8.17,10.94-14.11,14.78-19.56.55-.77,1.08-1.53,1.59-2.29A137.14,137.14,0,0,0,332.35,56h0s.06-.09.09-.15c.21-.39.41-.79.61-1.18a148.47,148.47,0,0,0,7.19-16.42c.43-1.17.79-2.19,1.08-3h0Z"/><polygon class="cls-57" points="325.5 44.11 332.76 56.73 347.57 54.17 333.43 55.19 325.5 44.11"/><polygon class="cls-57" points="314.86 58.66 323.04 73.4 345.02 75 324.99 71.18 314.86 58.66"/><polygon class="cls-57" points="307.27 94.75 330.12 97.4 308.43 93.1 304.23 76.85 307.27 94.75"/><path class="cls-27" d="M310.87,88.61A2.14,2.14,0,0,1,309.82,87c-.06-.74.27-1.41.92-1.47,1.19-.12.63,1,1.55,1.17s1-1.68,1.65-1a.75.75,0,0,1,.23.45C314.35,87.27,312.13,89.36,310.87,88.61Z"/><path class="cls-58" d="M320.56,89.47s2.66-1.28,4.53.39.5,4,.5,4"/><path class="cls-58" d="M306.75,78.67s2.66-1.29,4.54.39.49,4,.49,4"/><path class="cls-25" d="M314.46,95.93a1.62,1.62,0,0,1-.55.61c-1.05.75-3,.63-5.33-.47h0a12.72,12.72,0,0,1-1.24-.67,6.34,6.34,0,0,1-2.84-3.13,3.73,3.73,0,0,1,.29-3.7.57.57,0,0,1,.53-.22C306.38,88.64,315.34,94.36,314.46,95.93Z"/><path class="cls-26" d="M309.29,96.16c-.25,0-.49,0-.71-.09h0a12.72,12.72,0,0,1-1.24-.67,6.34,6.34,0,0,1-2.84-3.13C308.63,91.23,309.29,96.16,309.29,96.16Z"/><path class="cls-30" d="M314.46,95.93a1.62,1.62,0,0,1-.55.61,27.22,27.22,0,0,0-5-4.43c-2.16-1.29-4.51-1.92-4.12-3.54a.57.57,0,0,1,.53-.22C306.38,88.64,315.34,94.36,314.46,95.93Z"/><g class="cls-59"><path class="cls-27" d="M305.2,85.36a3.45,3.45,0,0,1-3.45,3.46,3.08,3.08,0,0,1-.86-.12c.29-2.12.56-4.24.92-6.36,0-.15.05-.29.08-.43A3.45,3.45,0,0,1,305.2,85.36Z"/><path class="cls-27" d="M322.76,99.27a3.49,3.49,0,0,1-.54,1.86h0c-1.66.33-3.39.54-5.16.75a3.45,3.45,0,1,1,5.71-2.61Z"/></g><path class="cls-23" d="M347.56,54.17c-.75,2.7-1.38,5-.89,6.32,1.66,4.47-.33,19.53-7.78,23s-2.81,8.28-8.77,13.9q-.28.27-.57.51c-.19.16-.38.32-.58.46s-.4.29-.61.42l0,0a11.32,11.32,0,0,1-1.22.7,12.64,12.64,0,0,1-1.3.59q-.63.25-1.29.45l-.92.26-.54.13-.57.13-.29.06-1,.19c-.81.14-1.65.26-2.51.36l-.75.1c-.51,0-1,.12-1.53.18l-1.8.23c-.84.12-1.67.25-2.51.41l-1.25.27c-.41.09-.83.2-1.24.32-.19,0-.38.1-.57.17a19.52,19.52,0,0,0-1.9.67l-.59.25-.49.25a11.84,11.84,0,0,0-1.09.63l-.51.34-.43.31c-.06,0-.12.1-.19.14l-.36.3a4.54,4.54,0,0,0-.48.39,23,23,0,0,0-2.76,2.82l-.49.6-.48.62c-.32.42-.62.84-.91,1.25-.08.1-.14.2-.21.3l-.42.61c-.8,1.21-1.49,2.36-2,3.3-.12.21-.23.4-.35.59l-.18.32c-.58,1-1,1.58-1.18,1.6s-.16.3-.23.44c-2.94,6.13-6.64-3.14-6.64-3.14s.55-.55,1.59-1.65a1.13,1.13,0,0,1-.1.49c-1.16,2.64,2.47,4,3.4,2.3a4.27,4.27,0,0,0,1.07-1.55c1.74-4,7.93-12.5,13.33-15.41a8.37,8.37,0,0,1,2.23-.86c5.79-1.29,19.2-1.7,19.07-7.12s-.7-7.49,3.44-10.24a23.12,23.12,0,0,0,6.67-7.44c.15-.26.29-.51.42-.77a14.33,14.33,0,0,0,1.52-10.4c-1-3.49.17-5.66,1.42-8l.36-.67c1.41-2.74,2.73-5.89,1-11.67a16.47,16.47,0,0,0-.83-2.27,11.23,11.23,0,0,0-1.46-2.42c-4-4.9-9.88-1.75-10.11-1.62,2.4-2.27,5.8-3.32,11.19-1.42h0c.28.1.56.2.85.32s.6.24.88.37C351.68,39.87,349.29,48.07,347.56,54.17Z"/><path class="cls-31" d="M310.87,88.61A2.14,2.14,0,0,1,309.82,87h0c1.83,1.72,3.46.26,4.34-.89C314.35,87.27,312.13,89.36,310.87,88.61Z"/><path class="cls-32" d="M314.86,73.64c1.79,1.49,4.58-5.33,4-10s3.43-7.47,6.08-9.46.7-4.35-2.22-2.25-6.44,5.74-5.58,12S313.34,72.37,314.86,73.64Z"/><path class="cls-32" d="M328.72,49.52a1.61,1.61,0,1,1-1.61-1.61A1.61,1.61,0,0,1,328.72,49.52Z"/><path class="cls-60" d="M227.82,150c-8.09,11.71-21.67,3.51-26.47,1.32l-.37-.16-.06,0a5.68,5.68,0,0,0-.77-.24h0c-3.55-.92-6.31,1.38-7.08,2.13a1.14,1.14,0,0,0-.11.11s-.05.06-.08.08l0,0c.72-3.72-1.12-6.19-3.77-8.38-5.56-4.58-14.72-7.84-11.22-18.61a21.93,21.93,0,0,1,.86-2.23c5-11.17,19.63-5.21,25.77-5.21a3.52,3.52,0,0,0,2.22-.55c1.27-1.06,2.16-3,2.81-5.11h0c1.13-3.55,1.59-7.36,2.06-7.36.76,0-1.17,7.13,0,7s2.54-6.46,3.36-5.22a1.29,1.29,0,0,1,.16.75c-.08,1.72-1.89,5,0,4.74,2.2-.27,3.58-5.49,4.53-5.49s.14,3.16-2.88,7.27a14.17,14.17,0,0,0-1.75,2.94s0,0,0,0c-.76,1.93-.41,3.55,1.27,5.74h0s0,0,0,0a21.44,21.44,0,0,0,1.53,1.79v0C221.93,129.72,235.92,138.24,227.82,150Z"/><path class="cls-61" d="M189.07,144.8c-5.93-4.89-15.95-8.27-10.36-20.84,5-11.17,19.63-5.21,25.77-5.21-3.47,2.06-12.74-1.55-18.5,7.41C181.61,133,186.46,141.21,189.07,144.8Z"/><path class="cls-61" d="M227.82,150c-8.09,11.71-21.67,3.51-26.47,1.32l-.37-.16c2.83.8,12.09,2.44,17.1-8.28,4.14-8.85,1.64-14.73-.27-17.49C221.93,129.72,235.92,138.24,227.82,150Z"/><path class="cls-61" d="M216.71,114.77a14.17,14.17,0,0,0-1.75,2.94s0,0,0,0c-2.61,5.17-.18,15-7.57,23.64s-9.09,5.93-14.44,11.69c0,0-.05.06-.08.08h0a18.81,18.81,0,0,0,0-8.6c-1.1-4.83,1-15.78,8.37-20.18a16.94,16.94,0,0,0,8.3-11.3h0c1.13-3.55,1.59-7.36,2.06-7.36.76,0-1.17,7.13,0,7s2.54-6.46,3.36-5.22-2.06,5.76.13,5.49,3.58-5.49,4.53-5.49S219.73,110.66,216.71,114.77Z"/><g class="cls-40"><path class="cls-27" d="M187.33,138.54c-.66,1.27-2.78,1.48-4.75.47s-3-2.86-2.37-4.14,2.78-1.48,4.74-.47S188,137.27,187.33,138.54Z"/><ellipse class="cls-27" cx="211.94" cy="151.2" rx="2.59" ry="4.01" transform="translate(-19.46 270.5) rotate(-62.78)"/></g><path class="cls-50" d="M186.8,132.16c-.71,1-1.84,1.48-2.53,1s-.67-1.69,0-2.72,1.83-1.49,2.52-1S187.5,131.12,186.8,132.16Z"/><path class="cls-50" d="M217,147.48c-.71,1-1.84,1.49-2.52,1s-.68-1.69,0-2.72,1.84-1.49,2.52-1S217.69,146.45,217,147.48Z"/><path class="cls-27" d="M202.24,139.54c-.9.37-3.45-1.17-4.08-2.59a1.1,1.1,0,0,1,.27-1.42c1.75-1.45,3.19,2.1,3.7,2s1-2.36,1.94-2.08l.12.05C205,135.91,203.47,139,202.24,139.54Z"/><path class="cls-50" d="M204.24,147.28a2.28,2.28,0,0,1-.69.76c-1.3.93-3.75.79-6.62-.56h0a15.67,15.67,0,0,1-1.55-.83,7.89,7.89,0,0,1-3.55-3.87,4.7,4.7,0,0,1,.34-4.61.68.68,0,0,1,.67-.27C194.15,138.26,205.32,145.31,204.24,147.28Z"/><path class="cls-26" d="M197.81,147.58c-.31,0-.6-.06-.88-.1h0a15.67,15.67,0,0,1-1.55-.83,7.89,7.89,0,0,1-3.55-3.87C197,141.46,197.81,147.58,197.81,147.58Z"/><path class="cls-30" d="M204.24,147.28a2.28,2.28,0,0,1-.69.76,33.38,33.38,0,0,0-6.24-5.48c-2.7-1.61-5.62-2.38-5.15-4.39a.68.68,0,0,1,.67-.27C194.15,138.26,205.32,145.31,204.24,147.28Z"/><path class="cls-62" d="M227.82,150c-8.09,11.71-21.67,3.51-26.47,1.32l-.37-.16-.06,0a5.68,5.68,0,0,0-.77-.24h0c-3.55-.92-6.31,1.38-7.08,2.13a1.14,1.14,0,0,0-.11.11s-.05.06-.08.08l0,0c.72-3.72-1.12-6.19-3.77-8.38-5.56-4.58-14.72-7.84-11.22-18.61-2.29,12.1,17,19.11,25.62,19.24S219.52,139,213,128c-4.65-7.85-.62-15.84,2.09-19.78-.08,1.72-1.89,5,0,4.74,2.2-.27,3.58-5.49,4.53-5.49s.14,3.16-2.88,7.27a14.17,14.17,0,0,0-1.75,2.94s0,0,0,0c-.76,1.93-.41,3.55,1.27,5.74h0s0,0,0,0a21.44,21.44,0,0,0,1.53,1.79v0C221.93,129.72,235.92,138.24,227.82,150Z"/><path class="cls-31" d="M202.24,139.54c-.9.37-3.45-1.17-4.08-2.59,4,3.12,5.41.3,5.91-1.47l.12.05C205,135.91,203.47,139,202.24,139.54Z"/><path class="cls-32" d="M184.84,125.34c3.46,2,4-3.23,10.87-2.47,8.23.91,7.38,1.11,8.61-.78.59-.92-9.7-3.75-15.25-2.46C180.6,121.61,182.67,124.1,184.84,125.34Z"/><path class="cls-63" d="M161.11,138.05v0a16.82,16.82,0,0,1-8.29,6.66c-7.07,2.24-4.76-10.08-6.92-10.08-1.84,0,0,9.53-7.84,7.69s-9.53-9.08-6-18.45c2.45-6.57,8.83-10.67,15-11.79h0c4.53-.83,9,0,11.61,2.56,6.31,6.15-5.53,9.16-4.91,10.64s7.84,0,9.68,3.81C164.39,131.14,163.35,134.76,161.11,138.05Z"/><path class="cls-64" d="M145.89,134.65s-4-4.77-6.76-.77.61,5.84,2.61,3.23S145.89,134.65,145.89,134.65Z"/><path class="cls-64" d="M153.74,125.3s-6.15-3.57-2.31-6.33,5.38,2,3.07,3.16A2,2,0,0,0,153.74,125.3Z"/><path class="cls-65" d="M150.48,137.13s-2.69-1.11-2.1-2.16,3,.85,3,.85"/><path class="cls-65" d="M156.1,130.46s-2.42-1.64-1.89-2.36,2.94,1.18,2.94,1.18"/><path class="cls-27" d="M152.61,137.67c.54.45.41,1.51-.29,2.38s-1.73,1.21-2.27.76-.42-1.51.29-2.37S152.06,137.23,152.61,137.67Z"/><path class="cls-27" d="M160.52,128.59c.54.44.41,1.51-.3,2.37s-1.72,1.21-2.27.77-.41-1.51.3-2.38S160,128.14,160.52,128.59Z"/><path class="cls-25" d="M159.6,132.44c.47,1.2-.48,2.82-2.43,4.84-1.67,1.74-3.85,2.15-4.49,1.43-.25-.29-.14-.6.18-1a16.17,16.17,0,0,1,1.34-1.26c.33-.3.7-.63,1.05-1,.62-.64,1.13-1.21,1.57-1.7.65-.74,1.13-1.3,1.5-1.65C159,131.51,159.26,131.56,159.6,132.44Z"/><path class="cls-30" d="M154.8,137.06c.24.45-.38.83-.93,1.09-.39.17-.73-.22-.91-.48a16.22,16.22,0,0,1,1.34-1.25A2.5,2.5,0,0,1,154.8,137.06Z"/><path class="cls-30" d="M159,132.84c.11.39-.45,1-1,1.4s-.9-.28-1.07-.52c.66-.75,1.13-1.31,1.5-1.66A2.41,2.41,0,0,1,159,132.84Z"/><path class="cls-3" d="M161.1,138.07a16.82,16.82,0,0,1-8.29,6.66c-7.07,2.24-4.76-10.08-6.92-10.08-1.84,0,0,9.53-7.84,7.69s-9.53-9.08-6-18.45c2.45-6.57,8.83-10.67,15-11.79a13,13,0,0,0-8.76,9.61c-1.75,8.17,9.92,5.09,12.54,12.32S156.19,143.74,161.1,138.07Z"/><path class="cls-18" d="M143.43,117.14c1.8,1.77,4.66-3.53,8.71-2.54s3.81,3.59,5,3.52.16-5.83-6.34-5.3S142.36,116.07,143.43,117.14Z"/><path class="cls-22" d="M257.3,160.33s13.45-19.64,26.37-26.63,4.84-8.54-2.16-4.95-21.65,16.25-26.09,29Z"/><path class="cls-20" d="M307.05,132.7c-3.25.87-9,2.09-15.51,4.39-11,3.87-24.43,10.79-32.41,24.2l-1.33-1.67-.5-.64s9.65-20.59,32.15-29.18c1-.37,1.95-.72,3-1a80.32,80.32,0,0,1,8.75-2.33C316.54,123.38,314.58,130.67,307.05,132.7Z"/><path class="cls-22" d="M321.6,135.31c-1.75,4.71-16,1.35-16.15,3.37s10.77,1.21,7.95,5.37-13.72-1.34-30.95,3.77c-11.1,3.29-17.44,8.43-20.55,11.67a18.77,18.77,0,0,0-2.45,3l-.32-1.2-.36-1.32a61.65,61.65,0,0,1,31.61-23.75,69.35,69.35,0,0,1,16.67-3.52C316.11,132,322.28,133.47,321.6,135.31Z"/><path class="cls-23" d="M321.6,135.31c-1.75,4.71-16,1.35-16.15,3.37s10.77,1.21,7.95,5.37-13.72-1.34-30.95,3.77c-11.1,3.29-17.44,8.43-20.55,11.67,5.88-10.06,20.05-16.13,27.15-17.52,5.77-1.12,4.06-3.53,2.49-4.88a14.17,14.17,0,0,0-1.16-.87l-.17-.1c18.34-6.24,11.15-9.59,11-9.69,15.38-3.05,13.42,4.24,5.89,6.27C316.11,132,322.28,133.47,321.6,135.31Z"/><path class="cls-1" d="M261.2,177.82a18.44,18.44,0,0,1-9.6,9.18,14.89,14.89,0,0,1-11.38.1c-5.25-2.42-8.88-.27-8.88-.27s1.48-2.83-2.56-8.34c-1.88-2.57-2.91-7.38-1.78-12.16v0a16.3,16.3,0,0,1,1.37-3.75l.26-.49c2.13-3.83,6.05-7.15,12.53-8.6a17.1,17.1,0,0,1,9.52.47C260.4,157.37,265.37,169.58,261.2,177.82Z"/><path class="cls-66" d="M251.6,187a14.89,14.89,0,0,1-11.38.1c-5.25-2.42-8.88-.27-8.88-.27s1.48-2.83-2.56-8.34c-2.38-3.26-3.4-10.11-.41-15.93,1.78.76,1.19,3.11.9,6.2s1.17.41,3.15,1.84-.94,2.46.77,4.43,1.06-.61,3.41.93-1.52,3.78.28,4.81,2.84-1.59,4.47-.53,0,2.68,1.28,3.63,3.31-.86,4.71.51-1.6,2.41.15,2.23C248.89,186.47,250.71,186.07,251.6,187Z"/><path class="cls-67" d="M242.35,177.29A5.42,5.42,0,0,1,236,180a7.27,7.27,0,0,1-3.27-2.16c-1.36-1.47-2.66-3.31-2.45-5.45a6.26,6.26,0,0,1,1.76-3.56,3.82,3.82,0,0,1,2.05-1.21c2.9-.66,6.56,2.05,8.34,5.59A4.43,4.43,0,0,1,242.35,177.29Z"/><path class="cls-68" d="M242,169.87c-1.13.56-1.89-1.38-2-3-.06-.85.07-1.59.43-1.77,1-.52,1.33.85,1.57,2s5-3.12,5.45-2.66l0,0C248,165.55,243.7,169,242,169.87Z"/><path class="cls-28" d="M235.8,163.49c-.61.56-1.39.7-1.74.31s-.15-1.15.47-1.71,1.39-.7,1.74-.31S236.41,162.93,235.8,163.49Z"/><path class="cls-28" d="M248.88,175c-.61.56-1.39.71-1.74.32s-.14-1.15.47-1.71,1.39-.7,1.74-.32S249.49,174.43,248.88,175Z"/><path class="cls-27" d="M250.41,182c-.77,1-2.77.89-4.47-.36s-2.46-3.11-1.69-4.16,2.78-.89,4.48.36S251.18,180.91,250.41,182Z"/><path class="cls-27" d="M232,167.09c-.76,1-2.77.89-4.47-.36-.17-.13-.35-.27-.51-.42a16.3,16.3,0,0,1,1.37-3.75l.26-.49a5.79,5.79,0,0,1,1.68.85C232,164.17,232.76,166,232,167.09Z"/><path class="cls-30" d="M242.35,177.29c-2.55-.26-8.11-6.41-8.65-7.94a1.5,1.5,0,0,1,.42-1.72c2.9-.66,6.56,2.05,8.34,5.59A4.43,4.43,0,0,1,242.35,177.29Z"/><path class="cls-26" d="M236,180a7.27,7.27,0,0,1-3.27-2.16c-1.36-1.47-2.66-3.31-2.45-5.45.81-.08,2.18.13,4,1.67C236.38,175.84,236.29,178.51,236,180Z"/><path class="cls-52" d="M280.37,127.84l.25-.24a2.29,2.29,0,0,0-.07.36Z"/><path class="cls-3" d="M261.2,177.82a18.44,18.44,0,0,1-9.6,9.18,14.89,14.89,0,0,1-11.38.1c-5.25-2.42-8.88-.27-8.88-.27s1.48-2.83-2.56-8.34c-1.88-2.57-2.91-7.38-1.78-12.16-1,8.37,5,11.89,8.78,13.18s19.51,3.42,22.24-7.65-7.58-17.79-7.58-17.79l.24-.13C260.4,157.37,265.37,169.58,261.2,177.82Z"/><path class="cls-69" d="M247.44,164.53c.57,1-3.74,4.48-5.47,5.34-1.13.56-1.89-1.38-2-3,.69,1.16,1.81,2.08,3.48.87a41,41,0,0,0,4-3.28Z"/><path class="cls-31" d="M248.25,163.68h0Z"/><path class="cls-70" d="M233.54,160.2c1.36,1.32,4.46-4.31,9-2.69s4.83-.41,4.83-1.62-5.9-2.42-9.27-.4S232.57,159.26,233.54,160.2Z"/><circle class="cls-70" cx="249.62" cy="157.15" r="1.09"/><path class="cls-1" d="M255.76,250.9c-6.34,3.76-12.15,5.06-17.11,4.59-13.07-1.22-20.23-14.61-15.74-26.75,1.94-5.29,6.1-10.33,12.92-14C264.21,199.29,286.13,232.87,255.76,250.9Z"/><path class="cls-3" d="M255.76,250.9c-6.34,3.76-12.15,5.06-17.11,4.59.86-.18,1.9-.37,3.15-.59,24.4-4.27,15-31.32,9.55-31.59A32.28,32.28,0,0,0,241,224.66C239.57,230,232,234.83,232,234.83c-1.83-2-2.27-7.12-2.27-7.12-1.66,1.4-5,1.25-6.86,1,1.94-5.29,6.1-10.33,12.92-14C264.21,199.29,286.13,232.87,255.76,250.9Z"/><path class="cls-22" d="M255.36,219.31a100.77,100.77,0,0,1-10.31,2,15,15,0,0,1-7.05-.55s3.25,3.94-6,11a15.88,15.88,0,0,1-.1-5,12.25,12.25,0,0,1,1.84-5.16c-.26.34-4.14,5.11-13.68,4.45,0,0,4.86-5.27,11.22-7.18a28.15,28.15,0,0,1-3.9.08h0a54.13,54.13,0,0,1-7.81-.89s6-5.44,16.26-4.07c0,0-.27-5.28,6.78-10.84,0,0,1.5,4.48-2.16,9.62a20.67,20.67,0,0,1,14.91-3.66,23.36,23.36,0,0,1-12.8,7.31C243.54,216.28,252.4,214.83,255.36,219.31Z"/><path class="cls-67" d="M258.9,247.22a11.93,11.93,0,0,1-4.49,2.94h0a7.93,7.93,0,0,1-5.24.18,5.39,5.39,0,0,1-.73-.27c-2.94-1.3-5.37-15,4.41-14,5.24.55,7.88,3.07,8.14,5.95A6.71,6.71,0,0,1,258.9,247.22Z"/><path class="cls-30" d="M254.41,250.16a7.93,7.93,0,0,1-5.24.18c.1-1,.47-3.5,1.52-3.64C252,246.53,254.41,250.16,254.41,250.16Z"/><path class="cls-30" d="M258.9,247.22a11.93,11.93,0,0,1-4.49,2.94c-.06-.22-1.36-4.6-.44-5.1S258.68,247.07,258.9,247.22Z"/><path class="cls-30" d="M258.9,247.22c-.18-.2-3.25-3.57-2.63-4.5S260,242,261,242A6.71,6.71,0,0,1,258.9,247.22Z"/><path class="cls-71" d="M255.35,229.83a6.09,6.09,0,0,0,6.67-.61,4.7,4.7,0,0,0,1.39-5.71"/><path class="cls-71" d="M231.5,244.79a6.09,6.09,0,0,0,6.67-.61,4.69,4.69,0,0,0,1.38-5.71"/><path class="cls-72" d="M241.47,248.12c.84,1.3-.21,3.49-2.36,4.88s-4.57,1.46-5.41.16.21-3.49,2.35-4.88S240.62,246.82,241.47,248.12Z"/><path class="cls-72" d="M269.67,229.83c.85,1.3-.21,3.48-2.35,4.87s-4.57,1.47-5.42.16.21-3.48,2.36-4.87S268.83,228.52,269.67,229.83Z"/><path class="cls-73" d="M251,234.82a5.9,5.9,0,0,1-1.87,1.18c-1.82.66-2.25-.29-2.85-1.93s-1.21-4.07-.61-4.41a.75.75,0,0,1,.24-.08c.64-.09,1.33.85,1.4,2.76.09,2.16,1.47.27,1.65-.56a1.76,1.76,0,0,1,3.11-.57C253,232.25,252.18,233.75,251,234.82Z"/><path class="cls-69" d="M251,234.82c.41-.91.39-1.79-.2-2.24-.89-.7-1,1.51-2.9,1.64-1.39.1-1.84-3-2-4.64.64-.09,1.33.85,1.4,2.76.09,2.16,1.47.27,1.65-.56a1.76,1.76,0,0,1,3.11-.57C253,232.25,252.18,233.75,251,234.82Z"/><path class="cls-23" d="M255.36,219.31a100.77,100.77,0,0,1-10.31,2,15,15,0,0,1-7.05-.55s3.25,3.94-6,11a15.88,15.88,0,0,1-.1-5c0,.26.6,3,2.54,1.19s2-8.41,2-8.52,11.54.66,11.54-.83-7.06-1.5-7.06-1.5,6.78-4.2,5-4.6-6.34,3.52-6.34,3.52.66-4.48-.7-4.61-1.49,5.56-1.49,5.56a17.73,17.73,0,0,0-10.57-.41c-5.33,1.56,0,2.32.49,2.38a54.13,54.13,0,0,1-7.81-.89s6-5.44,16.26-4.07c0,0-.27-5.28,6.78-10.84,0,0,1.5,4.48-2.16,9.62a20.67,20.67,0,0,1,14.91-3.66,23.36,23.36,0,0,1-12.8,7.31C243.54,216.28,252.4,214.83,255.36,219.31Z"/><path class="cls-70" d="M227.27,248a1.11,1.11,0,1,1,1.11,1.1A1.11,1.11,0,0,1,227.27,248Z"/><path class="cls-70" d="M225.53,232.34c2.23-.64-.82,2,1.22,7.52s1.8,5.34,0,6.46S221.26,233.58,225.53,232.34Z"/><path class="cls-20" d="M187,51.33a.64.64,0,0,1-.35.39c-.57.35-1.14.68-1.73,1a2.37,2.37,0,0,0-1.16,1,2,2,0,0,0-.12.8,6.72,6.72,0,0,0,.16,1.34c0,.14.17.45.27.73a1.14,1.14,0,0,1,.1.46c-.17.53-.42,0-.5-.2-.13-.38-.2-.79-.35-1.16a2.9,2.9,0,0,0-.58-1,1.31,1.31,0,0,0-1-.44c-.31,0-.64.18-.92.05,0-.12,0-.23,0-.34a.89.89,0,0,1-.62,0c-.2-.09-.27-.42-.08-.51s.36,0,.46-.12c0-.35-.73-.26-.77-.61s.33-.33.56-.24.47.26.7.16c0-.33-.48-.57-.36-.87a.36.36,0,0,1,.5-.14,1.05,1.05,0,0,1,.38.43c.28.46.55.92.82,1.38.09.15.29.32.4.19s.05-.2,0-.29c-.19-.55-.39-1.09-.59-1.64a5,5,0,0,0-.69-1.43c-.3-.37-.7-.66-1-1A3.43,3.43,0,0,1,179.8,48c-.08-.28-.06-.67.22-.74s.33.07.49.14.41,0,.44-.14a1.86,1.86,0,0,1-.47-.87c.09-.17.35-.09.5,0s.39.23.52.08,0-.44.21-.47a1.12,1.12,0,0,1,.62,1.08c0,.06.12,0,.15,0s0-.12.07-.18.42-.17.57,0l0,0a1.05,1.05,0,0,1,0,.74,11.7,11.7,0,0,0-.46,2.81,4.59,4.59,0,0,0,.78,2.7,1.31,1.31,0,0,0,.32-.85,8.66,8.66,0,0,1,.46-1.73c.09-.22.36-.47.51-.29s0,.27,0,.41-.05.34.09.37l.69-1.32c.06-.11.13-.24.25-.28s.48.26.3.44c.1-.14.35-.08.43.08a.77.77,0,0,1,0,.52.84.84,0,0,0,0,.52A.35.35,0,0,1,187,51.33Z"/><path class="cls-74" d="M184.2,57c-.17.53-.42,0-.5-.2-.13-.38-.2-.79-.35-1.16a2.9,2.9,0,0,0-.58-1,1.31,1.31,0,0,0-1-.44c-.31,0-.64.18-.92.05,0-.12,0-.23,0-.34a.89.89,0,0,1-.62,0c-.2-.09-.27-.42-.08-.51s.36,0,.46-.12c0-.35-.73-.26-.77-.61s.33-.33.56-.24.47.26.7.16c0-.33-.48-.57-.36-.87a.36.36,0,0,1,.5-.14,1.05,1.05,0,0,1,.38.43c.28.46.55.92.82,1.38.09.15.29.32.4.19s.05-.2,0-.29c-.19-.55-.39-1.09-.59-1.64a5,5,0,0,0-.69-1.43c-.3-.37-.7-.66-1-1A3.43,3.43,0,0,1,179.8,48c-.08-.28-.06-.67.22-.74s.33.07.49.14.41,0,.44-.14a1.86,1.86,0,0,1-.47-.87c.09-.17.35-.09.5,0s.39.23.52.08,0-.44.21-.47a1.12,1.12,0,0,1,.62,1.08c0,.06.12,0,.15,0s0-.12.07-.18.42-.17.57,0a.32.32,0,0,0-.36.12c-.09.15,0,.38-.13.51s-.35,0-.44-.13-.12-.34-.21-.49-.33-.24-.45-.11a.35.35,0,0,0,0,.37.65.65,0,0,0,.12.54c-.21-.14-.48-.28-.68-.14a.41.41,0,0,0-.11.48,1,1,0,0,0,.31.42c-.15-.06-.31.11-.29.26a.47.47,0,0,0,.29.34c.13.07.29.1.42.18a1.3,1.3,0,0,1,.55.78c.29.79.34,1.66.68,2.44.17.4.43.84.28,1.25a.38.38,0,0,1-.3.27.59.59,0,0,1-.3-.14,5.52,5.52,0,0,0-.69-.46.24.24,0,0,0-.2,0,.17.17,0,0,0-.07.23.5.5,0,0,0,.2.18c.36.21.77.36,1.13.58a1.6,1.6,0,0,1,.77,1c0,.2,0,.41,0,.61a.72.72,0,0,0,.24.55.34.34,0,0,0,.21.08A1.14,1.14,0,0,1,184.2,57Z"/><path class="cls-20" d="M249.71,133.21a.66.66,0,0,1-.52-.12c-.57-.33-1.14-.68-1.69-1a2.32,2.32,0,0,0-1.41-.54,1.83,1.83,0,0,0-.75.27,7.21,7.21,0,0,0-1.11.79c-.1.09-.3.37-.5.59a1.08,1.08,0,0,1-.35.31c-.55.1-.2-.38-.06-.53.26-.31.58-.56.84-.87a3.06,3.06,0,0,0,.6-1,1.33,1.33,0,0,0-.11-1.12c-.17-.27-.47-.48-.49-.79l.3-.15a.86.86,0,0,1-.33-.53c0-.21.23-.43.41-.31s.16.32.32.35c.33-.14-.12-.77.17-1s.44.13.47.38,0,.53.2.68c.28-.17.27-.69.59-.73s.36.17.37.37a1.12,1.12,0,0,1-.2.54l-.81,1.38c-.09.16-.14.41,0,.45s.19-.06.26-.14l1.15-1.3a5.08,5.08,0,0,0,.91-1.3c.19-.45.24-.94.4-1.39a3.16,3.16,0,0,1,.77-1.26c.21-.2.56-.38.76-.16s.1.33.12.5.16.38.33.32a1.68,1.68,0,0,1,.54-.84c.19,0,.24.26.21.46s0,.45.17.49.41-.18.52,0a1.1,1.1,0,0,1-.65,1.06s0,.12.09.13.12,0,.18,0c.23,0,.36.29.27.5,0,0,0,0,0,.05a1.07,1.07,0,0,1-.66.35,11.4,11.4,0,0,0-2.68.95,4.69,4.69,0,0,0-2,2,1.33,1.33,0,0,0,.91-.13,8,8,0,0,1,1.73-.43c.24,0,.59.08.51.3s-.23.15-.37.18-.32.12-.28.26l1.48,0a.53.53,0,0,1,.37.09c.2.15,0,.54-.24.48.17,0,.24.26.14.41a.75.75,0,0,1-.46.25.89.89,0,0,0-.47.22A.35.35,0,0,1,249.71,133.21Z"/><path class="cls-74" d="M243.38,133.47c-.55.1-.2-.38-.06-.53.26-.31.58-.56.84-.87a3.06,3.06,0,0,0,.6-1,1.33,1.33,0,0,0-.11-1.12c-.17-.27-.47-.48-.49-.79l.3-.15a.86.86,0,0,1-.33-.53c0-.21.23-.43.41-.31s.16.32.32.35c.33-.14-.12-.77.17-1s.44.13.47.38,0,.53.2.68c.28-.17.27-.69.59-.73s.36.17.37.37a1.12,1.12,0,0,1-.2.54l-.81,1.38c-.09.16-.14.41,0,.45s.19-.06.26-.14l1.15-1.3a5.08,5.08,0,0,0,.91-1.3c.19-.45.24-.94.4-1.39a3.16,3.16,0,0,1,.77-1.26c.21-.2.56-.38.76-.16s.1.33.12.5.16.38.33.32a1.68,1.68,0,0,1,.54-.84c.19,0,.24.26.21.46s0,.45.17.49.41-.18.52,0a1.1,1.1,0,0,1-.65,1.06s0,.12.09.13.12,0,.18,0c.23,0,.36.29.27.5a.31.31,0,0,0-.27-.25c-.18,0-.34.18-.51.13s-.19-.3-.1-.45.24-.26.32-.42.06-.4-.12-.44a.37.37,0,0,0-.33.16.68.68,0,0,0-.41.37c0-.25,0-.56-.21-.67a.43.43,0,0,0-.47.14,1.17,1.17,0,0,0-.22.48.24.24,0,0,0-.37-.13.52.52,0,0,0-.16.42,3.41,3.41,0,0,1,0,.46,1.32,1.32,0,0,1-.41.85c-.56.63-1.3,1.1-1.81,1.77-.27.35-.53.79-1,.86a.38.38,0,0,1-.38-.14.53.53,0,0,1,0-.33,5.55,5.55,0,0,0,.06-.82.22.22,0,0,0,0-.2.18.18,0,0,0-.24.05.46.46,0,0,0-.06.26c0,.42.05.85,0,1.27a1.52,1.52,0,0,1-.48,1.14,3.61,3.61,0,0,1-.53.33.74.74,0,0,0-.36.47.41.41,0,0,0,0,.22A1.08,1.08,0,0,1,243.38,133.47Z"/><path class="cls-20" d="M213.94,255.79a.71.71,0,0,1-.13.52c-.32.58-.66,1.15-1,1.7a2.32,2.32,0,0,0-.54,1.41,1.86,1.86,0,0,0,.29.75,6.67,6.67,0,0,0,.79,1.1c.1.11.38.31.6.5a1,1,0,0,1,.31.35c.11.54-.37.2-.53.07-.31-.27-.56-.58-.88-.84a3,3,0,0,0-1-.59,1.31,1.31,0,0,0-1.11.12c-.26.17-.47.48-.78.49l-.15-.29a1,1,0,0,1-.53.34c-.21,0-.44-.23-.32-.41s.32-.17.35-.33c-.15-.32-.77.13-1-.16s.13-.44.38-.47.53,0,.68-.21c-.17-.28-.69-.26-.74-.58s.18-.36.37-.37a1,1,0,0,1,.55.19c.46.27.92.54,1.39.8.15.09.4.14.44,0s-.06-.2-.14-.26l-1.32-1.14a4.81,4.81,0,0,0-1.3-.9c-.45-.18-.94-.23-1.4-.38a3.28,3.28,0,0,1-1.26-.77c-.21-.2-.39-.55-.17-.75s.33-.1.5-.13.37-.16.31-.33a1.78,1.78,0,0,1-.84-.53c0-.19.26-.25.45-.22s.46,0,.49-.17-.18-.41,0-.53a1.14,1.14,0,0,1,1.07.64s.12,0,.13-.08a1.29,1.29,0,0,0,0-.19c0-.23.29-.36.51-.27l0,0a1.07,1.07,0,0,1,.35.65,11,11,0,0,0,1,2.67,4.72,4.72,0,0,0,2,2,1.28,1.28,0,0,0-.14-.91,8,8,0,0,1-.44-1.73c0-.23.07-.58.29-.5s.16.22.18.37.13.31.27.27c0-.49,0-1,0-1.48a.63.63,0,0,1,.08-.38c.16-.19.55,0,.48.25,0-.18.27-.25.42-.15a.8.8,0,0,1,.25.45.86.86,0,0,0,.22.47A.36.36,0,0,1,213.94,255.79Z"/><path class="cls-74" d="M214.25,262.12c.11.54-.37.2-.53.07-.31-.27-.56-.58-.88-.84a3,3,0,0,0-1-.59,1.31,1.31,0,0,0-1.11.12c-.26.17-.47.48-.78.49l-.15-.29a1,1,0,0,1-.53.34c-.21,0-.44-.23-.32-.41s.32-.17.35-.33c-.15-.32-.77.13-1-.16s.13-.44.38-.47.53,0,.68-.21c-.17-.28-.69-.26-.74-.58s.18-.36.37-.37a1,1,0,0,1,.55.19c.46.27.92.54,1.39.8.15.09.4.14.44,0s-.06-.2-.14-.26l-1.32-1.14a4.81,4.81,0,0,0-1.3-.9c-.45-.18-.94-.23-1.4-.38a3.28,3.28,0,0,1-1.26-.77c-.21-.2-.39-.55-.17-.75s.33-.1.5-.13.37-.16.31-.33a1.78,1.78,0,0,1-.84-.53c0-.19.26-.25.45-.22s.46,0,.49-.17-.18-.41,0-.53a1.14,1.14,0,0,1,1.07.64s.12,0,.13-.08a1.29,1.29,0,0,0,0-.19c0-.23.29-.36.51-.27a.32.32,0,0,0-.26.28c0,.18.19.33.14.51s-.29.19-.45.1-.26-.24-.42-.32-.41,0-.44.12a.36.36,0,0,0,.17.33.64.64,0,0,0,.36.41c-.24,0-.55,0-.66.22a.43.43,0,0,0,.14.47,1.38,1.38,0,0,0,.48.21c-.15,0-.21.24-.12.37a.48.48,0,0,0,.42.15c.15,0,.3-.05.46-.05a1.37,1.37,0,0,1,.86.41c.63.55,1.11,1.28,1.78,1.79.35.27.79.52.87,1a.35.35,0,0,1-.14.37.44.44,0,0,1-.32,0,7.7,7.7,0,0,0-.83-.05.24.24,0,0,0-.2.06.18.18,0,0,0,.06.24.42.42,0,0,0,.25.05c.43,0,.85-.06,1.28,0a1.58,1.58,0,0,1,1.15.47,5.58,5.58,0,0,1,.32.52.74.74,0,0,0,.48.37.43.43,0,0,0,.22,0A1,1,0,0,1,214.25,262.12Z"/><path class="cls-20" d="M290.82,212.37a.63.63,0,0,1-.51-.13c-.58-.32-1.15-.67-1.7-1a2.37,2.37,0,0,0-1.4-.55,2.12,2.12,0,0,0-.76.28,6.51,6.51,0,0,0-1.1.79c-.11.09-.31.37-.51.59a.85.85,0,0,1-.35.3c-.54.11-.19-.37-.06-.52.26-.31.58-.56.84-.88a3.06,3.06,0,0,0,.6-1,1.3,1.3,0,0,0-.11-1.12c-.17-.26-.47-.47-.49-.78l.3-.15a.89.89,0,0,1-.33-.53c0-.21.23-.43.41-.32s.16.33.32.35c.33-.14-.12-.76.17-1s.45.14.47.38,0,.54.2.68c.28-.16.27-.69.6-.73s.35.18.36.38a1.12,1.12,0,0,1-.2.54l-.81,1.38c-.09.15-.14.4,0,.45s.19-.06.26-.14l1.15-1.31a4.84,4.84,0,0,0,.91-1.3c.19-.44.24-.93.4-1.39a3.34,3.34,0,0,1,.78-1.25c.2-.21.55-.38.75-.17s.1.33.12.51.16.37.33.31a1.7,1.7,0,0,1,.54-.83c.19,0,.24.26.21.45s0,.45.17.49.41-.18.53,0a1.14,1.14,0,0,1-.65,1.07c0,.05,0,.12.08.13a1.62,1.62,0,0,0,.19,0c.23,0,.35.3.26.51,0,0,0,0,0,.05a1,1,0,0,1-.66.34,11,11,0,0,0-2.68,1,4.72,4.72,0,0,0-2,2,1.33,1.33,0,0,0,.91-.13,8.68,8.68,0,0,1,1.74-.43c.23,0,.58.08.5.3s-.23.16-.37.18-.32.13-.28.26l1.48,0a.63.63,0,0,1,.38.08c.19.16,0,.55-.25.48.17,0,.24.27.14.42a.8.8,0,0,1-.45.25.85.85,0,0,0-.48.22A.35.35,0,0,1,290.82,212.37Z"/><path class="cls-74" d="M284.49,212.62c-.54.11-.19-.37-.06-.52.26-.31.58-.56.84-.88a3.06,3.06,0,0,0,.6-1,1.3,1.3,0,0,0-.11-1.12c-.17-.26-.47-.47-.49-.78l.3-.15a.89.89,0,0,1-.33-.53c0-.21.23-.43.41-.32s.16.33.32.35c.33-.14-.12-.76.17-1s.45.14.47.38,0,.54.2.68c.28-.16.27-.69.6-.73s.35.18.36.38a1.12,1.12,0,0,1-.2.54l-.81,1.38c-.09.15-.14.4,0,.45s.19-.06.26-.14l1.15-1.31a4.84,4.84,0,0,0,.91-1.3c.19-.44.24-.93.4-1.39a3.34,3.34,0,0,1,.78-1.25c.2-.21.55-.38.75-.17s.1.33.12.51.16.37.33.31a1.7,1.7,0,0,1,.54-.83c.19,0,.24.26.21.45s0,.45.17.49.41-.18.53,0a1.14,1.14,0,0,1-.65,1.07c0,.05,0,.12.08.13a1.62,1.62,0,0,0,.19,0c.23,0,.35.3.26.51a.31.31,0,0,0-.27-.26c-.18,0-.34.19-.51.14s-.19-.3-.1-.45.24-.27.32-.42.06-.41-.12-.45-.24.07-.33.17a.66.66,0,0,0-.41.36c0-.25,0-.55-.21-.66a.42.42,0,0,0-.47.14,1.13,1.13,0,0,0-.22.47.23.23,0,0,0-.36-.12.44.44,0,0,0-.16.41c0,.16,0,.31,0,.46a1.32,1.32,0,0,1-.41.86c-.56.63-1.3,1.1-1.81,1.77-.27.35-.53.79-1,.85a.38.38,0,0,1-.38-.13.61.61,0,0,1,0-.33,5.69,5.69,0,0,0,.07-.83.24.24,0,0,0-.06-.19.17.17,0,0,0-.24,0,.42.42,0,0,0-.06.25c0,.43.05.85,0,1.28a1.55,1.55,0,0,1-.48,1.14,5.58,5.58,0,0,1-.52.32.71.71,0,0,0-.37.48.42.42,0,0,0,0,.22A.85.85,0,0,1,284.49,212.62Z"/><path class="cls-20" d="M313.49,119.44a.67.67,0,0,1-.51-.13c-.58-.33-1.15-.67-1.7-1a2.29,2.29,0,0,0-1.4-.54,1.8,1.8,0,0,0-.76.28,6.45,6.45,0,0,0-1.1.78c-.11.1-.31.37-.5.6a1.15,1.15,0,0,1-.36.3c-.54.11-.19-.38-.06-.53s.58-.56.84-.87a3.06,3.06,0,0,0,.6-1,1.29,1.29,0,0,0-.11-1.12c-.17-.26-.47-.47-.48-.78l.29-.15a.94.94,0,0,1-.33-.53c0-.22.23-.44.41-.32s.16.32.32.35c.33-.14-.12-.76.17-1s.45.14.48.38,0,.53.2.68c.27-.17.26-.69.59-.73s.35.18.36.37a1.11,1.11,0,0,1-.2.55l-.81,1.38c-.09.15-.14.4,0,.44s.19-.06.26-.13l1.15-1.31a4.84,4.84,0,0,0,.91-1.3c.19-.44.24-.93.4-1.39a3.38,3.38,0,0,1,.78-1.26c.2-.2.56-.38.75-.16s.1.33.12.5.16.38.33.32a1.8,1.8,0,0,1,.54-.84c.19,0,.24.27.22.46s0,.45.16.49.41-.18.53,0a1.14,1.14,0,0,1-.65,1.06s0,.13.08.13a.63.63,0,0,0,.19,0c.23,0,.36.29.26.51a.08.08,0,0,1,0,0,1,1,0,0,1-.66.35,11,11,0,0,0-2.68,1,4.72,4.72,0,0,0-2,2,1.33,1.33,0,0,0,.91-.13,8.05,8.05,0,0,1,1.74-.43c.23,0,.58.08.5.3s-.23.16-.37.18-.32.12-.28.26l1.48,0a.61.61,0,0,1,.38.08c.19.16,0,.55-.25.48.17,0,.24.27.14.41a.7.7,0,0,1-.45.25.86.86,0,0,0-.47.22A.36.36,0,0,1,313.49,119.44Z"/><path class="cls-74" d="M307.16,119.69c-.54.11-.19-.38-.06-.53s.58-.56.84-.87a3.06,3.06,0,0,0,.6-1,1.29,1.29,0,0,0-.11-1.12c-.17-.26-.47-.47-.48-.78l.29-.15a.94.94,0,0,1-.33-.53c0-.22.23-.44.41-.32s.16.32.32.35c.33-.14-.12-.76.17-1s.45.14.48.38,0,.53.2.68c.27-.17.26-.69.59-.73s.35.18.36.37a1.11,1.11,0,0,1-.2.55l-.81,1.38c-.09.15-.14.4,0,.44s.19-.06.26-.13l1.15-1.31a4.84,4.84,0,0,0,.91-1.3c.19-.44.24-.93.4-1.39a3.38,3.38,0,0,1,.78-1.26c.2-.2.56-.38.75-.16s.1.33.12.5.16.38.33.32a1.8,1.8,0,0,1,.54-.84c.19,0,.24.27.22.46s0,.45.16.49.41-.18.53,0a1.14,1.14,0,0,1-.65,1.06s0,.13.08.13a.63.63,0,0,0,.19,0c.23,0,.36.29.26.51a.3.3,0,0,0-.27-.26c-.18,0-.34.18-.51.13s-.19-.29-.1-.45.24-.26.32-.42.06-.4-.12-.44-.24.07-.33.17a.64.64,0,0,0-.41.36c0-.25,0-.56-.21-.66a.41.41,0,0,0-.47.13,1.17,1.17,0,0,0-.22.48.23.23,0,0,0-.36-.13.46.46,0,0,0-.16.42c0,.15.05.3,0,.46a1.34,1.34,0,0,1-.41.86c-.56.63-1.29,1.09-1.81,1.76-.27.35-.53.79-1,.86a.36.36,0,0,1-.38-.14.57.57,0,0,1,0-.32,5.81,5.81,0,0,0,.07-.83.28.28,0,0,0-.06-.2.19.19,0,0,0-.24,0,.48.48,0,0,0-.06.26c0,.42.06.85,0,1.28a1.55,1.55,0,0,1-.48,1.14,5.58,5.58,0,0,1-.52.32.72.72,0,0,0-.37.47.37.37,0,0,0,0,.23A1.15,1.15,0,0,1,307.16,119.69Z"/><path class="cls-20" d="M129.33,99.6a.65.65,0,0,1,.14.51c0,.66,0,1.32-.1,2a2.35,2.35,0,0,0,.2,1.49,1.83,1.83,0,0,0,.61.53,6,6,0,0,0,1.22.59c.13,0,.47.1.76.16a1,1,0,0,1,.44.17c.35.42-.24.35-.44.3-.39-.08-.77-.24-1.17-.32a3.24,3.24,0,0,0-1.16-.05,1.37,1.37,0,0,0-.93.63c-.14.28-.18.65-.45.81l-.27-.19a.9.9,0,0,1-.31.54c-.18.12-.49,0-.47-.2s.2-.3.15-.46c-.28-.22-.61.48-.93.32s-.1-.45.1-.59.47-.26.5-.51c-.28-.16-.73.1-.92-.16a.36.36,0,0,1,.15-.5,1,1,0,0,1,.57-.09l1.6,0c.18,0,.42-.07.38-.24s-.14-.14-.24-.17l-1.7-.37a4.72,4.72,0,0,0-1.58-.18c-.48,0-.93.24-1.41.32a3.31,3.31,0,0,1-1.47-.08c-.28-.08-.61-.31-.51-.58s.24-.25.38-.35.25-.33.12-.44a1.86,1.86,0,0,1-1-.07c-.1-.17.12-.34.3-.41s.4-.2.35-.39-.36-.27-.29-.44a1.14,1.14,0,0,1,1.25.07c.06,0,.09-.08.07-.14a.88.88,0,0,0-.12-.15c-.13-.19.08-.45.32-.48h0a1.12,1.12,0,0,1,.62.41,10.7,10.7,0,0,0,2.13,1.9,4.64,4.64,0,0,0,2.69.8,1.33,1.33,0,0,0-.55-.74,8.36,8.36,0,0,1-1.21-1.31c-.14-.19-.21-.55,0-.59s.24.13.33.24.26.22.36.12c-.24-.43-.49-.86-.74-1.29a.52.52,0,0,1-.1-.36.29.29,0,0,1,.54,0c-.08-.16.12-.34.29-.33a.75.75,0,0,1,.44.28.91.91,0,0,0,.42.31C128.69,99.66,129.12,99.39,129.33,99.6Z"/><path class="cls-74" d="M132.6,105c.35.42-.24.35-.44.3-.39-.08-.77-.24-1.17-.32a3.24,3.24,0,0,0-1.16-.05,1.37,1.37,0,0,0-.93.63c-.14.28-.18.65-.45.81l-.27-.19a.9.9,0,0,1-.31.54c-.18.12-.49,0-.47-.2s.2-.3.15-.46c-.28-.22-.61.48-.93.32s-.1-.45.1-.59.47-.26.5-.51c-.28-.16-.73.1-.92-.16a.36.36,0,0,1,.15-.5,1,1,0,0,1,.57-.09l1.6,0c.18,0,.42-.07.38-.24s-.14-.14-.24-.17l-1.7-.37a4.72,4.72,0,0,0-1.58-.18c-.48,0-.93.24-1.41.32a3.31,3.31,0,0,1-1.47-.08c-.28-.08-.61-.31-.51-.58s.24-.25.38-.35.25-.33.12-.44a1.86,1.86,0,0,1-1-.07c-.1-.17.12-.34.3-.41s.4-.2.35-.39-.36-.27-.29-.44a1.14,1.14,0,0,1,1.25.07c.06,0,.09-.08.07-.14a.88.88,0,0,0-.12-.15c-.13-.19.08-.45.32-.48a.32.32,0,0,0-.1.37c.08.16.32.21.36.38s-.17.31-.34.3-.35-.08-.53-.08-.38.15-.33.32a.4.4,0,0,0,.31.21.68.68,0,0,0,.51.19c-.23.1-.49.25-.48.5a.44.44,0,0,0,.35.35,1.15,1.15,0,0,0,.52,0c-.13.09-.07.31.06.38a.46.46,0,0,0,.45-.06c.13-.08.24-.19.38-.26a1.34,1.34,0,0,1,1,0c.82.19,1.58.61,2.42.74.43.07.94.09,1.21.44a.34.34,0,0,1,.06.39.48.48,0,0,1-.28.17,6.36,6.36,0,0,0-.75.34.28.28,0,0,0-.15.15.18.18,0,0,0,.16.18.37.37,0,0,0,.26-.07c.37-.19.72-.45,1.1-.64a1.56,1.56,0,0,1,1.23-.12,5.7,5.7,0,0,1,.54.3.7.7,0,0,0,.59.1.49.49,0,0,0,.18-.14A1,1,0,0,1,132.6,105Z"/></g></g></svg>